<?xml version="1.0" encoding="UTF-8"?>
<svg id="Layer_1" data-name="Layer 1" xmlns="http://www.w3.org/2000/svg" viewBox="0 0 287.71 247.36">
  <defs>
    <style>
      .cls-1 {
        fill: #f4c9c6;
      }

      .cls-2 {
        fill: #7bb4ab;
        fill-rule: evenodd;
      }

      .cls-3 {
        fill: #6e6e6e;
      }
    </style>
  </defs>
  <g>
    <path class="cls-1" d="M213.32,61.85c-.43-5.7-1.15-11.39-2.12-17.03-.69-3.99-1.49-7.97-2.46-11.89-.11.03-.21.06-.31.09-7.15,2.09-14.17,4.68-21.01,7.64-5.3,2.29-10.44,4.89-15.53,7.63,9.05-8.57,20.9-14.78,32.66-18.76,2.38-.82,4.96-1.51,7.4-2.17.67,2.43,1.35,5.03,1.83,7.5,1.17,5.76,1.86,11.64,2.01,17.52.17,6.75-.33,13.57-1.93,20.15-.12-3.57-.26-7.12-.54-10.67Z"/>
    <path class="cls-1" d="M12.77,116.73c7.05-4.14,14.58-7.5,22.37-9.97l.75-.23c-.95.45-1.9.91-2.84,1.36-6.15,3.02-12.14,6.39-17.81,10.23,4.43,6.17,9.42,11.97,14.8,17.33,5.65,5.59,11.83,10.69,18.56,14.94,12.05,7.58,24.25,11.51,38.56,11.32,9.44-.1,18.81-1.87,27.84-4.58,7.04-2.08,13.91-4.94,20.57-7.95l-.23.03.22-.06.11-.03-.09.06c-.84.55-1.99,1.24-2.83,1.77-16.99,10.26-38.03,16.86-57.99,14.18-14.77-1.96-28.28-9.47-39.4-19.15-9.04-7.89-16.79-17.23-22.98-27.5l-.67-1.13,1.05-.63h0Z"/>
    <path class="cls-1" d="M191.62,161.18c8.54.96,17.3.73,25.66-1.35,11.9-2.94,22.63-9.31,32.05-17.07,8.64-7.17,16.3-15.53,22.86-24.64-6.54-4.43-13.5-8.23-20.65-11.59,8.06,2.49,15.85,5.94,23.12,10.21l1.05.62-.67,1.13c-8.75,14.41-20.48,27.24-34.78,36.28-8.37,5.26-17.77,9.07-27.6,10.37-18.34,2.44-37.06-2.82-53.16-11.43-2.29-1.22-4.52-2.56-6.71-3.94-.31-.2-.63-.39-.94-.6,6.71,3.13,13.52,5.84,20.56,7.97,6.27,1.88,12.7,3.3,19.21,4.04h0Z"/>
    <path class="cls-1" d="M90.21,36.75c-3.8-1.4-7.64-2.69-11.53-3.81-.03.11-.05.21-.08.32-1.76,7.24-3.03,14.61-3.89,22.01-.67,5.74-.99,11.49-1.16,17.26-2.9-12.13-2.35-25.49.09-37.66.48-2.47,1.17-5.05,1.82-7.5,2.44.64,5.03,1.35,7.41,2.16,5.57,1.87,11.01,4.21,16.18,7.01,5.93,3.23,11.59,7.07,16.48,11.74-3.16-1.68-6.3-3.33-9.52-4.87-5.15-2.48-10.44-4.7-15.81-6.68h0Z"/>
    <path class="cls-1" d="M146.81,144.75c18.87,3.66,39.08,4.16,57.51-1.94,21.57-6.94,36.43-25.38,45.66-45.37.95-2.03,1.86-4.16,2.7-6.24,1.42-3.53,2.7-7.14,3.8-10.78-4.46-1.13-9-1.99-13.55-2.64-14.06-1.97-28.63-1.85-42.38,1.97-4.29,1.21-8.5,2.79-12.48,4.8-4.03,2.01-7.81,4.48-11.37,7.24,3.6-3.44,7.64-6.5,11.98-8.96,2.55-1.47,5.29-2.77,8.03-3.87,13.86-5.52,29.22-6.69,43.98-5.35,7.1.65,14.16,1.9,21.04,3.77-1.77,7.15-4.19,14.13-7.19,20.86-5.6,12.52-13.26,24.32-23.49,33.54-5.58,5.04-12,9.19-18.96,12.04-16.31,6.68-34.63,7.11-51.8,4.13-4.16-.73-8.33-1.68-12.39-2.87l-1.1-.34h.01s0-.02,0-.02Z"/>
    <path class="cls-1" d="M112.7,90.58c-5.49-24.16,4.96-48.8,19.65-67.68,3.49-4.51,7.27-8.78,11.37-12.75,4.25,4.23,8.14,8.79,11.71,13.59,3.26,4.39,6.26,9.01,8.88,13.82,5.22,9.59,9.08,20.06,10.31,30.94.16,1.52.3,3.12.35,4.66.07,1.55.05,3.11,0,4.66-.18-3.87-.66-7.71-1.47-11.48-.71-3.36-1.68-6.75-2.82-9.99-2.16-6.15-5.02-12.06-8.33-17.68-2.92-4.95-6.22-9.68-9.79-14.19-1.18-1.5-2.42-2.98-3.67-4.42-1.67-1.92-3.39-3.81-5.17-5.62-14.94,15.84-27.56,36.43-29.77,58.36-.65,6.59-.16,13.25,1.18,19.73,2.27,10.93,6.87,21.28,12.52,30.87-5.96-8.42-10.74-17.69-13.65-27.62-.51-1.69-.91-3.48-1.3-5.19h0Z"/>
    <path class="cls-1" d="M127.66,123.4c1.97,2.54,3.97,5.03,6.05,7.47,3.15,3.7,6.46,7.29,9.95,10.68.24-.26.49-.53.71-.78,5.9-6.53,11.22-13.59,15.85-21.07,7.81-12.69,13.58-26.93,14.74-41.89,1.04,13.27-3.05,26.73-9.17,38.39-4.01,7.64-9.02,14.75-14.69,21.24-2.34,2.68-4.84,5.25-7.45,7.69l-.84-.89c-2.97-3.14-5.7-6.48-8.26-9.97-2.52-3.47-4.88-7.09-6.9-10.88h0Z"/>
    <path class="cls-1" d="M76.43,144.28c-18.23-7.02-31.72-22.66-40.5-39.68-1.25-2.4-2.45-4.94-3.52-7.42-2.79-6.39-5.04-13.01-6.72-19.78,7.77-2.12,15.76-3.43,23.79-4,14.13-.97,28.69.43,41.88,5.83,1.65.69,3.39,1.49,4.98,2.3.94.48,2.1,1.13,3,1.65,4.11,2.41,7.96,5.34,11.39,8.62-3.56-2.76-7.34-5.23-11.37-7.24-3.98-2.02-8.19-3.59-12.48-4.8-13.32-3.7-27.41-3.93-41.06-2.15-5,.67-9.99,1.58-14.87,2.83.66,2.2,1.4,4.39,2.18,6.55,3.1,8.49,7.02,16.73,11.9,24.34,6.84,10.68,15.69,20.32,26.82,26.53,9.88,5.51,21.09,8.23,32.3,9.18,6.06.52,12.18.53,18.26.12,6.1-.4,12.19-1.2,18.23-2.4l-1.1.34c-.37.11-.74.21-1.11.32-2.22.63-4.47,1.18-6.73,1.67-18.18,3.85-37.73,4-55.25-2.8h0Z"/>
    <path class="cls-1" d="M219.2,56.3c-.47-6.17-1.25-12.33-2.29-18.43-.74-4.32-1.61-8.62-2.67-12.87-.11.03-.23.06-.34.1-7.74,2.27-15.34,5.07-22.74,8.27-5.74,2.48-11.3,5.29-16.81,8.25,9.79-9.28,22.63-16,35.35-20.3,2.58-.88,5.37-1.64,8.01-2.35.72,2.63,1.46,5.45,1.98,8.12,1.26,6.23,2.01,12.6,2.18,18.96.18,7.31-.36,14.69-2.09,21.8-.13-3.87-.29-7.71-.59-11.55Z"/>
    <path class="cls-1" d="M2.13,115.69c7.63-4.48,15.78-8.11,24.21-10.79l.81-.25c-1.03.49-2.05.98-3.07,1.48-6.65,3.27-13.13,6.92-19.27,11.07,4.79,6.68,10.2,12.96,16.02,18.75,6.12,6.06,12.8,11.57,20.09,16.17,13.04,8.2,26.25,12.46,41.73,12.26,10.22-.1,20.36-2.02,30.14-4.96,7.62-2.26,15.05-5.34,22.26-8.6l-.25.03.24-.07.11-.03-.1.07c-.91.6-2.16,1.34-3.06,1.91-18.39,11.11-41.16,18.25-62.76,15.35-15.98-2.12-30.61-10.25-42.64-20.72-9.78-8.54-18.17-18.64-24.87-29.76l-.73-1.23,1.14-.68h0Z"/>
    <path class="cls-1" d="M195.7,163.8c9.24,1.04,18.72.78,27.77-1.47,12.88-3.18,24.5-10.07,34.69-18.47,9.35-7.76,17.64-16.81,24.74-26.66-7.08-4.79-14.61-8.91-22.35-12.54,8.73,2.69,17.15,6.43,25.03,11.05l1.14.68-.72,1.22c-9.47,15.6-22.16,29.48-37.64,39.27-9.06,5.69-19.23,9.81-29.87,11.22-19.85,2.64-40.11-3.05-57.54-12.37-2.48-1.32-4.89-2.77-7.26-4.27-.34-.21-.68-.42-1.01-.65,7.26,3.38,14.63,6.32,22.25,8.62,6.79,2.04,13.74,3.57,20.79,4.37h0Z"/>
    <path class="cls-1" d="M85.96,29.12c-4.11-1.51-8.27-2.91-12.48-4.13-.03.11-.06.23-.08.34-1.9,7.83-3.28,15.82-4.21,23.82-.72,6.21-1.07,12.43-1.26,18.68-3.14-13.12-2.54-27.59.09-40.76.52-2.67,1.27-5.47,1.97-8.11,2.64.69,5.45,1.46,8.02,2.34,6.03,2.02,11.92,4.56,17.51,7.59,6.42,3.5,12.54,7.66,17.84,12.71-3.41-1.82-6.82-3.61-10.3-5.27-5.58-2.68-11.3-5.09-17.11-7.23h0Z"/>
    <path class="cls-1" d="M147.21,146.02c20.42,3.96,42.29,4.51,62.25-2.1,23.35-7.51,39.43-27.47,49.42-49.1,1.02-2.2,2.01-4.5,2.92-6.75,1.53-3.83,2.93-7.72,4.12-11.67-4.82-1.23-9.74-2.16-14.66-2.86-15.22-2.13-30.99-2-45.87,2.14-4.65,1.31-9.2,3.01-13.51,5.2-4.36,2.18-8.45,4.85-12.3,7.84,3.89-3.72,8.26-7.03,12.97-9.7,2.76-1.59,5.73-3,8.69-4.19,15-5.97,31.63-7.24,47.6-5.79,7.69.71,15.33,2.05,22.78,4.09-1.92,7.74-4.54,15.3-7.78,22.57-6.06,13.55-14.35,26.32-25.43,36.3-6.04,5.45-12.98,9.95-20.52,13.03-17.65,7.23-37.48,7.69-56.07,4.47-4.51-.79-9.02-1.82-13.41-3.11l-1.2-.36h.01s0-.02,0-.02Z"/>
    <path class="cls-1" d="M110.3,87.39c-5.94-26.15,5.37-52.82,21.27-73.25,3.78-4.88,7.87-9.5,12.3-13.8,4.6,4.58,8.81,9.51,12.68,14.71,3.53,4.76,6.78,9.75,9.61,14.95,5.65,10.38,9.83,21.71,11.16,33.49.17,1.64.32,3.38.37,5.04.08,1.68.05,3.36,0,5.04-.2-4.19-.72-8.34-1.59-12.43-.76-3.64-1.82-7.3-3.05-10.81-2.34-6.66-5.43-13.05-9.01-19.13-3.16-5.36-6.73-10.48-10.6-15.35-1.28-1.62-2.62-3.22-3.97-4.79-1.81-2.08-3.67-4.12-5.59-6.08-16.17,17.15-29.83,39.42-32.22,63.16-.7,7.13-.17,14.34,1.27,21.36,2.46,11.83,7.43,23.03,13.55,33.42-6.45-9.11-11.62-19.15-14.78-29.9-.55-1.83-.99-3.77-1.41-5.62h0Z"/>
    <path class="cls-1" d="M126.49,122.91c2.13,2.75,4.29,5.45,6.55,8.09,3.41,4,6.99,7.89,10.77,11.56.26-.29.53-.57.77-.85,6.39-7.06,12.15-14.7,17.16-22.8,8.45-13.73,14.69-29.15,15.95-45.34,1.13,14.36-3.3,28.93-9.92,41.55-4.34,8.26-9.76,15.97-15.9,22.99-2.54,2.9-5.24,5.68-8.06,8.32l-.91-.97c-3.21-3.39-6.17-7.02-8.93-10.79-2.73-3.76-5.28-7.68-7.47-11.77h0Z"/>
    <path class="cls-1" d="M71.04,145.51c-19.74-7.6-34.34-24.52-43.84-42.95-1.35-2.59-2.65-5.35-3.81-8.03-3.02-6.92-5.46-14.08-7.27-21.41,8.41-2.29,17.06-3.71,25.75-4.33,15.3-1.05,31.05.46,45.32,6.31,1.79.74,3.67,1.61,5.39,2.49,1.01.52,2.27,1.22,3.25,1.78,4.45,2.61,8.61,5.78,12.33,9.33-3.85-2.98-7.95-5.66-12.31-7.84-4.31-2.18-8.86-3.89-13.51-5.2-14.41-4-29.67-4.25-44.44-2.33-5.41.72-10.81,1.71-16.1,3.06.72,2.38,1.51,4.75,2.36,7.09,3.36,9.19,7.59,18.11,12.87,26.35,7.4,11.56,16.98,21.99,29.03,28.72,10.69,5.96,22.82,8.9,34.96,9.94,6.56.56,13.18.57,19.76.13,6.6-.44,13.19-1.3,19.73-2.59l-1.2.36c-.4.12-.8.23-1.2.34-2.41.68-4.84,1.28-7.28,1.81-19.68,4.17-40.83,4.32-59.8-3.03h0Z"/>
    <path class="cls-2" d="M141.38,82.82s.81.93,2.12,1.64c.45.24.96.46,1.52.59.35.09.71.14,1.09.15.29,0,.58,0,.88-.05.41-.06.84-.18,1.27-.37.38-.16.75-.37,1.13-.65.47-.34.94-.78,1.4-1.32.02-.02.02-.05,0-.07-.02-.02-.05-.02-.07,0-.5.49-1,.86-1.48,1.16-.38.23-.75.4-1.11.54-.34.12-.67.2-.99.25-.35.06-.68.07-1.01.07-.44-.01-.86-.07-1.26-.17-.44-.11-.84-.25-1.22-.42-1.32-.59-2.18-1.42-2.18-1.42-.02-.02-.05-.02-.07,0-.02.02-.02.05,0,.07ZM195.46,168.75c.23.16.31.46.19.72-1.09,2.3-3.09,4.81-6.62,4.92-6.56.2-24.96,0-36.05-1.66,0,0-18.27,1.35-30.68,1.62,3.07-.57,7.35-1.4,11.88-2.38,3.65-.79,7.46-1.67,10.91-2.6,2.57-.68,4.94-1.39,6.91-2.09,1.91-.68,3.44-1.35,4.42-1.99,0,0,0,0,0,0l.39-.24c.86-.49,4.45-2.51,8.18-4.01,2.03-.82,4.1-1.49,5.8-1.67.66-.07,1.31-.26,1.9-.55.59-.29,1.13-.68,1.59-1.17.89-.93,2.16-2.08,3.74-3.03.73-.44,2.37-1.07,2.37-1.07,1.23-.48,2.53.16,3.04.46.13.08.26.18.36.3.6.66,1.19,1.48,1.69,2.32.79,1.32,1.37,2.69,1.37,3.54,0,.32.11.61.29.84.19.23.46.4.77.46.25.05.49.02.7-.13.15-.11.29-.29.39-.57,0,0,0,0,0-.01,0,0,.38-1.37.35-2.61-.02-.7-.18-1.35-.58-1.73-.03-.03-.06-.07-.08-.12-.02-.04-.03-.09-.03-.14,0-.05,0-.09.03-.14.02-.04.04-.08.08-.12.08-.08.19-.1.33-.02.16.09.35.27.58.59.57.78.79,2.22.76,3.7-.02,1.38-.26,2.8-.68,3.8-.07.17-.1.34-.1.52,0,.18.04.35.11.52,0,0,0,0,0,0,.07.17.19.33.35.44.14.1.33.15.56.13h0c.12-.01.24-.05.35-.1.11-.05.21-.12.29-.21,0,0,0,0,0,0,.29-.31.94-1.06,1.42-2.08.11-.23.2-.47.29-.72,0,.49,0,1.04-.02,1.57-.03.83-.11,1.64-.27,2.16-.05.16-.07.34-.04.51.03.17.09.33.19.47.1.14.24.25.39.33.15.08.32.12.49.11.22,0,.45-.06.67-.23.11-.08.21-.18.32-.31.05.45.22,1.36.68,1.68h0ZM91.88,167.65c-.04.18-.18.31-.36.34-.18.03-.36-.05-.45-.2-.54-.91-1.01-2.64-.83-5.91,0,0,.73-2.33,2.11-4,0,0,.28-.52.53-1.17.5-1.34,1.4-2.49,2.57-3.3.71-.5,1.58-1.08,2.58-1.72.97-.62,1.83-1.41,2.53-2.33,2.22-2.91,7.07-9.42,7.81-11.65,0,0,3.23-6.73,5.57-8.33,2.34-1.6,4.54-13.3,4.54-17.66,0,0-2.8-17.52,10.31-20.1,0,0,5.27-1.09,10.45-4.42.07-.04.14-.08.22-.12.28-.13,1.16-.8,1.61-3.89.05-.37-.07-.75-.34-1.02-1.13-1.14-3.25-3.05-5.69-11.91-.45-1.62-.62-3.31-.49-4.99.31-4.06,1.59-11.17,6.82-12.02,0,0-2-3-.09-4.65.03-.03.06-.05.09-.08,0,0,5.41-4.85,9.33,0,0,.01.02.02.03.03.22.24,2.3,2.65-.02,4.7,0,0,7.98,1.58,6.3,14.31,0,0-.62,8.8-5.54,14.42-.53.6-.74,1.42-.56,2.21.17.75.61,1.67,1.65,2.59.23.2.48.37.75.5,1.76.85,10.22,4.88,14.43,6.93.95.47,1.7,1.26,2.11,2.24.95,2.29,2.52,6.8,2.5,11.55,0,.26,0,.52.02.78.16,2.56,1.12,15.89,4.46,20.31.18.24.35.5.51.76,1.48,2.53,8.72,14.98,11.16,19.28.33.6.77,1.13,1.29,1.57.71.61,1.79,1.54,2.74,2.39,1.28,1.16,2.29,2.58,2.96,4.17,1.1,2.6,2.59,6.72,1.77,8.07-.31.5-.54,1.04-.69,1.6-.13.48-.31,1.06-.56,1.69-.04.09-.13.15-.24.14-.09-.02-.18-.05-.25-.11-.57-.41-.6-1.83-.6-1.83,0-.04-.03-.07-.07-.08-.04-.01-.08,0-.1.04-.14.21-.28.36-.42.46-.19.13-.38.18-.56.18h0c-.14,0-.27-.04-.39-.1-.12-.06-.22-.15-.3-.27-.08-.11-.13-.24-.14-.37-.02-.13,0-.27.04-.39,0,0,0,0,0,0,.18-.54.28-1.37.33-2.22.09-1.62.01-3.34.01-3.34,0-.1-.09-.17-.18-.17-.1,0-.17.08-.17.18,0,.85-.26,1.63-.58,2.29-.47.96-1.09,1.67-1.37,1.96-.05.05-.11.09-.18.13-.07.03-.14.05-.21.06-.12.01-.21-.01-.28-.06-.09-.06-.15-.15-.19-.25-.05-.11-.07-.23-.07-.35,0-.12.02-.24.07-.35,0,0,0,0,0,0,.52-1.24.79-3.11.7-4.77-.07-1.28-.35-2.45-.86-3.14-.37-.5-.68-.71-.91-.77-.26-.07-.46.02-.61.17-.07.07-.12.15-.16.25-.04.09-.05.19-.05.29,0,.1.02.2.06.28.04.09.1.17.17.24h0c.34.32.46.88.48,1.47.05,1.15-.27,2.43-.29,2.51-.07.21-.16.35-.27.43-.14.11-.3.12-.47.09-.25-.05-.46-.17-.61-.36-.15-.18-.24-.42-.25-.67h0c-.01-.88-.62-2.29-1.47-3.64-.56-.89-1.22-1.76-1.87-2.43-.04-.04-.06-.11-.03-.16.93-2.46-1.01-3.74-1.27-3.9,0,0-.02-.01-.03-.02-3.63-2.37-12.63-14.47-13.06-15.05-.02-.02-.03-.04-.05-.06-4.48-5.89-6.33-22.03-6.33-22.03-6.39,24.73,2.19,37.31,3.54,39.07.06.07.05.18-.01.24-.55.55-1.1.95-1.77,1.33-2.05,1.14-4.4,1.52-5.81,1.65-.33.03-.67.03-1.01,0-.33-.02-.67-.08-.99-.15-1.29-.3-2.33-.32-3.18-.18-1.5.25-2.37.99-2.82,1.51-.27.31-.57.59-.9.84-.33.24-.69.45-1.06.61h0c-.59.26-1.26.49-1.92.69-1.11.34-2.21.6-2.98.76-.32.07-.64.11-.96.11-.32,0-.64-.02-.96-.07-1.39-.23-2.72-.44-4.01-.63-2.15-.32-4.16-.59-6.03-.81-2.2-.26-4.21-.46-6.06-.61-3.69-.3-6.69-.39-9.12-.36-9.37.14-10.49,2.21-10.49,2.21-.01.02,0,.06.02.07.02.01.06,0,.07-.02,0,0,1.15-1.99,10.41-2,2.43,0,5.42.13,9.09.46,1.84.17,3.84.39,6.04.66,1.87.24,3.87.52,6.02.84,1.28.19,2.61.4,4,.63.35.06.7.08,1.05.07.35,0,.7-.05,1.04-.13h0c.78-.17,1.89-.45,3.01-.8.67-.21,1.35-.45,1.96-.72.4-.18.78-.4,1.13-.66.35-.26.67-.57.95-.9.4-.48,1.21-1.17,2.6-1.42.81-.14,1.82-.14,3.06.14.34.08.69.13,1.04.15.35.02.7.01,1.05-.02h0c1.43-.15,3.81-.57,5.87-1.76.73-.43,1.43-.95,2.02-1.59.44-.21,1.24-.54,1.96-.84.77-.33,1.61-.47,2.44-.41,1.47.09,2.89-.36,3.62-.65.43-.17.89-.26,1.35-.27,3.63-.03,4.11,2.39,4.16,3.31,0,.08-.04.15-.12.17-.84.3-1.62.68-2.34,1.09-1.61.94-2.92,2.08-3.83,3.01,0,0,0,0,0,0-.45.46-.97.82-1.53,1.09-.57.27-1.18.44-1.81.5h0c-1.72.16-3.83.81-5.9,1.62-3.77,1.48-7.4,3.48-8.26,3.97,0,0,0,0,0,0l-.42.26c-.95.62-2.46,1.27-4.33,1.94-1.96.7-4.32,1.41-6.87,2.11-3.44.94-7.24,1.86-10.87,2.69-4.94,1.12-9.59,2.08-12.68,2.69-.06.01-.12.02-.18.02-.86.01-1.69.02-2.48.02-.2,0-.4.01-.6.03-1.65.16-9.78.92-15.39.65-3.37-.17-6.54-1.63-8.85-4.07-.34-.36-.71-.78-.99-1.17-.41-.52-.8-.89-1.27-1.31,0,0,.4-1.09.45-1.45.1.13.21.24.32.32.22.16.45.23.67.23.17,0,.34-.04.49-.11.15-.08.28-.19.38-.33.1-.14.17-.3.19-.47.03-.17.01-.34-.04-.51-.16-.52-.24-1.33-.27-2.16-.02-.55-.02-1.11-.02-1.6.09.26.19.51.3.74.48,1.02,1.13,1.78,1.42,2.08,0,0,0,0,0,0,.09.09.18.16.29.21.11.05.23.09.35.1h0c.23.02.42-.03.56-.12.16-.1.27-.26.35-.43,0,0,0,0,0,0,.07-.17.11-.34.11-.52,0-.18-.03-.35-.1-.52-.41-1-.65-2.43-.67-3.8-.02-1.48.2-2.91.77-3.7.24-.33.46-.51.68-.58.3-.1.56.04.76.21h0s.07.07.09.11c.02.04.03.09.04.14,0,.05,0,.1-.02.14-.02.04-.04.09-.08.12-.37.38-.58.97-.7,1.59-.23,1.2-.1,2.52-.1,2.52,0,.01,0,.03,0,.04.08.23.19.4.32.52.17.16.37.24.59.26.18.02.36-.01.53-.08.17-.07.32-.17.44-.3.12-.13.21-.29.26-.46.05-.17.06-.35.02-.53,0,0,0,0,0,0-.1-.52.04-1.11.38-1.74.35-.65.92-1.33,1.67-2.01.08-.07.18-.13.29-.16.25-.08.73-.25,1.25-.61.16-.11.33-.24.49-.39.04-.03.08-.05.13-.05,14.71-.46,20.14-3.14,21.31-3.83.22-.13.4-.31.53-.52,2.03-3.27,5.21-21.61,5.42-22.86.02-.11.03-.21.03-.32.13-3.1-3.18-16.76-3.18-16.76.9,4-5.92,21.91-6.67,23.86-.12.3-.25.59-.39.88-3.21,6.47-14.77,16.02-16.65,17.55-.15.12-.24.31-.24.51,0,.28-.05.53-.11.75-.12.43-.39.8-.77,1.05h0c-.73.49-1.37.61-1.37.61-.02,0-.03.01-.05.02-.87.73-1.52,1.47-1.92,2.17-.39.69-.54,1.34-.44,1.92.02.13.01.27-.02.4-.04.13-.1.24-.2.34-.09.1-.2.17-.33.22-.12.05-.25.06-.39.05,0,0,0,0,0,0-.14-.01-.27-.07-.39-.18-.09-.09-.17-.21-.23-.38-.01-.16-.09-1.33.13-2.4.11-.54.3-1.06.62-1.39h0c.07-.07.13-.16.16-.25.04-.09.05-.19.05-.3,0-.1-.03-.2-.07-.29-.04-.09-.11-.17-.18-.24-.29-.25-.69-.44-1.15-.3-.27.09-.58.3-.89.72-.51.69-.79,1.86-.86,3.14-.08,1.67.19,3.53.71,4.77,0,0,0,0,0,0,.05.11.07.23.07.35,0,.12-.02.24-.07.35-.04.1-.1.19-.19.25-.07.05-.17.07-.29.06-.07,0-.15-.03-.21-.06-.07-.03-.13-.07-.18-.13-.28-.29-.9-1-1.37-1.96-.32-.66-.57-1.45-.58-2.3,0-.09-.07-.17-.17-.17-.09,0-.17.07-.18.16,0,0-.08,1.72.01,3.34.05.86.15,1.69.33,2.22,0,0,0,0,0,0,.05.13.06.26.04.4-.02.13-.07.26-.15.37-.08.11-.18.2-.3.27-.12.06-.25.1-.39.1h0c-.18,0-.37-.05-.56-.18-.14-.1-.29-.25-.42-.46-.02-.03-.06-.05-.1-.04-.04.01-.06.04-.07.08,0,0,0,.4-.1.84Z"/>
    <path class="cls-2" d="M141.39,82.81s0,0,0,0c0,0,0-.02,0-.02,0,0,0-.02.01-.02,0,0,.02,0,.02,0s.02,0,.02.01h0s.39.37,1.04.8c.32.21.71.43,1.15.63.19.09.39.17.6.24.2.07.41.13.62.18.2.05.41.09.63.12.21.03.42.05.64.05.17,0,.34,0,.51,0,.17-.01.33-.03.51-.06.16-.03.33-.06.5-.1.16-.04.32-.09.49-.15.19-.07.38-.15.57-.24.18-.09.36-.19.55-.3.26-.16.52-.33.78-.54.24-.18.47-.39.71-.62,0,0,0,0,0,0,0,0,.02-.01.02-.01,0,0,.02,0,.02,0,0,0,.01.02.01.02,0,0,0,.02,0,.02,0,0,0,0,0,0-.22.26-.44.49-.66.7-.25.23-.49.44-.74.62-.18.13-.36.25-.55.35-.19.11-.39.21-.58.29-.21.09-.41.16-.62.22-.22.06-.43.11-.64.14-.15.02-.29.04-.44.05-.15,0-.3,0-.44,0-.19,0-.37-.02-.55-.05-.18-.03-.36-.06-.54-.11-.27-.07-.53-.15-.78-.25-.26-.1-.51-.22-.74-.34-.43-.23-.81-.49-1.12-.73-.63-.49-.99-.9-.99-.9M141.36,82.83s.37.43.99.91c.31.24.69.5,1.13.73.23.12.48.24.74.34.25.1.51.18.78.25.18.04.36.08.54.11.18.03.36.04.55.05.15,0,.29,0,.44,0,.15,0,.29-.02.44-.05.21-.03.43-.08.65-.14.21-.06.41-.13.62-.22.19-.08.39-.18.59-.29.18-.11.37-.22.55-.36.25-.18.5-.39.74-.62.22-.21.44-.44.66-.7.01-.01.02-.03.02-.05,0-.02,0-.03-.02-.05-.01-.01-.03-.02-.05-.02-.02,0-.03,0-.05.02-.24.23-.47.44-.71.62-.26.2-.52.38-.77.54-.18.11-.36.21-.54.29-.19.09-.38.17-.57.24-.16.06-.33.11-.49.15-.17.04-.33.08-.5.1-.17.03-.34.05-.5.06-.17.01-.34.01-.51,0-.22,0-.43-.02-.63-.05-.21-.03-.42-.07-.62-.12-.21-.05-.42-.11-.62-.18-.21-.07-.41-.15-.6-.24-.44-.2-.82-.42-1.14-.63-.64-.42-1.02-.78-1.03-.79-.01-.01-.03-.02-.05-.02-.02,0-.04,0-.05.02-.01.01-.02.03-.02.05,0,.02,0,.04.02.05h0ZM195.45,168.76h0c.11.08.19.19.22.31.03.12.02.26-.03.38-.58,1.22-1.41,2.5-2.6,3.44-1.04.84-2.36,1.41-4.01,1.46-4.12.12-12.93.09-21.66-.36-5.15-.27-10.27-.68-14.38-1.3,0,0,0,0,0,0,0,0-8.84.65-18.4,1.14-4.11.21-8.34.39-12.07.47,1.63-.31,3.6-.68,5.74-1.11,1.87-.37,3.87-.79,5.93-1.23,1.81-.39,3.65-.8,5.47-1.23,1.86-.44,3.69-.9,5.44-1.36,1.21-.32,2.38-.65,3.48-.98,1.24-.37,2.39-.74,3.44-1.11,1.02-.36,1.93-.72,2.71-1.08.68-.31,1.26-.62,1.71-.92h0s.39-.24.39-.24c.52-.3,2.06-1.17,4.02-2.14,1.26-.62,2.69-1.29,4.15-1.87,1.15-.46,2.32-.88,3.43-1.19.84-.23,1.64-.4,2.37-.48.33-.04.66-.1.98-.19.32-.09.63-.21.93-.36.3-.15.58-.32.85-.51.27-.2.52-.41.75-.66.48-.5,1.08-1.07,1.77-1.64.59-.48,1.25-.95,1.97-1.39.24-.14.58-.31.93-.47.7-.32,1.44-.6,1.44-.6.53-.2,1.07-.2,1.55-.11.64.12,1.18.4,1.47.57.07.04.13.09.19.13.06.05.12.1.17.16.3.34.61.72.9,1.12.28.38.54.79.79,1.2.42.7.78,1.41,1.02,2.05.22.57.34,1.08.34,1.48,0,.16.02.31.07.45.05.15.13.28.22.4.1.12.21.22.35.3.13.08.27.14.43.17h0c.13.03.25.03.37,0,.12-.02.24-.07.34-.15.09-.06.17-.15.24-.26.06-.09.11-.19.15-.32h0s.16-.58.26-1.31c.06-.41.1-.87.09-1.32-.01-.4-.07-.78-.19-1.11-.09-.25-.22-.47-.39-.64-.02-.02-.03-.03-.04-.05-.01-.02-.02-.04-.03-.06,0-.02-.02-.04-.02-.06,0-.02,0-.04,0-.07,0-.02,0-.04,0-.07,0-.02.01-.04.02-.06,0-.02.02-.04.03-.06.01-.02.03-.04.04-.05.04-.04.09-.07.15-.07.05,0,.1.01.16.05.08.04.16.11.26.2.1.1.2.22.32.38h0c.26.35.44.84.57,1.41.15.68.21,1.47.19,2.28-.01.65-.07,1.31-.17,1.93-.12.69-.29,1.34-.51,1.87-.04.08-.06.17-.08.26-.02.09-.03.18-.03.27,0,.09,0,.18.03.27.02.09.05.17.08.26h0c.04.09.09.17.14.25.06.08.13.14.21.2.08.05.17.09.28.12.09.02.19.02.3.01h0c.06,0,.12-.02.18-.04.06-.02.12-.04.17-.07.06-.03.11-.06.16-.1.05-.04.1-.08.14-.12h0c.17-.19.47-.53.79-.99.21-.31.44-.68.63-1.1.05-.12.11-.23.16-.35.04-.09.07-.18.1-.27,0,.22,0,.45,0,.69,0,.26,0,.52-.02.79-.02.46-.05.91-.1,1.3-.04.33-.1.62-.17.85-.03.08-.04.17-.05.26,0,.09,0,.17,0,.26.01.09.04.17.07.25.03.08.08.16.13.23.05.07.11.13.18.19.07.06.14.1.22.14.08.04.16.07.24.09.08.02.17.03.26.03.12,0,.24-.02.36-.06.11-.04.22-.09.32-.17.06-.04.11-.09.17-.15.04-.04.08-.09.12-.14.03.27.11.69.25,1.05.1.25.24.48.43.61h0ZM195.47,168.74h0c-.18-.13-.32-.35-.42-.59-.15-.38-.22-.81-.26-1.08,0,0,0-.01-.01-.01,0,0-.01,0-.02,0-.05.06-.1.12-.15.17-.06.06-.11.1-.17.14-.1.08-.21.13-.31.17-.12.04-.23.06-.35.06-.08,0-.17,0-.25-.03-.08-.02-.16-.05-.24-.09-.07-.04-.15-.08-.21-.14-.06-.05-.12-.12-.17-.18-.05-.07-.09-.14-.12-.22-.03-.08-.05-.16-.07-.24-.01-.08-.02-.17,0-.25,0-.08.02-.17.05-.25h0c.07-.24.13-.53.17-.86.05-.4.08-.85.1-1.31.01-.26.02-.53.02-.79,0-.27,0-.54,0-.79,0,0,0-.02-.01-.02,0,0-.02,0-.02.01-.04.12-.09.24-.13.36-.05.12-.1.24-.15.35-.19.41-.41.78-.63,1.09-.32.46-.62.8-.79.99h0s-.09.08-.14.12c-.05.04-.1.07-.15.09-.05.03-.11.05-.17.06-.06.02-.12.03-.18.03h0c-.11.01-.2,0-.29-.01-.1-.02-.19-.06-.26-.11-.08-.05-.15-.12-.2-.19-.06-.07-.1-.16-.14-.24h0c-.03-.08-.06-.17-.08-.25-.02-.09-.03-.17-.03-.26,0-.09,0-.18.02-.26.02-.09.04-.17.08-.25.22-.53.39-1.18.51-1.87.1-.62.16-1.28.17-1.93.01-.81-.05-1.61-.19-2.29-.12-.57-.31-1.06-.57-1.42-.12-.16-.22-.29-.32-.39-.1-.1-.18-.16-.27-.21-.07-.04-.13-.05-.18-.05-.07,0-.13.03-.17.08-.02.02-.03.04-.05.06-.01.02-.03.04-.03.06,0,.02-.02.05-.02.07,0,.02,0,.05,0,.07,0,.03,0,.05,0,.07,0,.02.01.05.02.07,0,.02.02.04.04.06.01.02.03.04.05.06.17.16.3.38.39.62.12.32.17.7.19,1.1.01.44-.03.91-.09,1.31-.1.73-.26,1.29-.26,1.29h0c-.04.13-.09.24-.15.32-.07.11-.15.19-.23.25-.1.08-.21.12-.33.14-.12.02-.24.02-.36,0h0c-.15-.03-.29-.09-.42-.16-.13-.08-.24-.18-.34-.3-.09-.12-.17-.25-.22-.39-.05-.14-.07-.29-.07-.44h0c0-.4-.12-.92-.34-1.49-.24-.64-.6-1.36-1.03-2.06-.25-.41-.51-.82-.79-1.2-.29-.4-.6-.78-.9-1.12-.05-.06-.11-.11-.17-.16-.06-.05-.13-.1-.19-.14h0c-.29-.17-.83-.45-1.48-.57-.49-.09-1.04-.09-1.57.11h0s-.74.29-1.44.6c-.35.16-.69.32-.93.47-.73.44-1.39.91-1.97,1.39-.7.57-1.29,1.14-1.77,1.64-.23.24-.48.46-.74.65-.27.2-.55.37-.84.51-.3.15-.6.26-.92.36-.32.09-.64.15-.97.19-.73.08-1.53.25-2.37.48-1.11.31-2.28.72-3.43,1.19-1.46.59-2.89,1.25-4.15,1.87-1.97.97-3.5,1.84-4.03,2.14l-.39.24h0c-.45.3-1.03.6-1.71.91-.78.35-1.69.72-2.7,1.08-1.04.37-2.2.74-3.43,1.11-1.1.33-2.27.66-3.48.98-1.75.47-3.58.92-5.44,1.36-1.82.43-3.67.84-5.47,1.23-2.06.44-4.07.86-5.93,1.23-2.24.45-4.28.84-5.95,1.15,0,0-.01,0-.01.02,0,0,0,.02.02.02,3.78-.08,8.1-.26,12.28-.48,9.48-.48,18.25-1.13,18.4-1.14,4.11.62,9.23,1.03,14.38,1.3,8.73.45,17.54.49,21.67.36,1.66-.05,2.98-.63,4.03-1.47,1.19-.95,2.02-2.23,2.61-3.46.06-.13.07-.28.04-.41-.04-.13-.12-.25-.24-.33h0ZM106.58,159.13h0s.55-.95,3.94-1.53c1.52-.26,3.6-.45,6.45-.46,1.34,0,2.85.04,4.55.13,1.38.07,2.89.18,4.54.34.96.09,1.97.19,3.02.31.96.11,1.97.23,3.01.36.97.12,1.97.26,3.01.4.97.14,1.97.28,3.01.44.65.1,1.32.2,2,.31.65.1,1.32.21,2,.32.17.03.35.05.52.06.18.01.35.02.53.01s.35-.02.52-.04c.17-.02.35-.05.52-.09h0c.42-.09.94-.22,1.51-.37.48-.13.99-.27,1.5-.43.33-.1.66-.22.99-.33.34-.12.66-.25.97-.39h0c.2-.09.4-.19.59-.3.19-.11.37-.23.55-.37.18-.13.34-.27.5-.43.16-.15.31-.31.45-.48.24-.28.61-.64,1.17-.93.38-.2.85-.38,1.42-.48.45-.08.96-.11,1.53-.08.46.03.97.1,1.52.22.17.04.34.07.52.09.17.02.35.04.52.05.17.01.35.01.53.01.17,0,.35-.01.52-.03h0c.79-.08,1.87-.25,3.03-.58.94-.27,1.92-.65,2.85-1.18.37-.21.73-.45,1.07-.72.34-.26.66-.55.95-.87.2-.09.47-.21.77-.34.37-.16.79-.33,1.18-.49h0c.38-.16.79-.28,1.19-.35.41-.07.83-.09,1.24-.07.64.04,1.28-.02,1.85-.13.74-.14,1.37-.36,1.78-.52.21-.09.43-.15.66-.2.23-.04.45-.07.68-.07h0c1.31-.01,2.21.3,2.83.74,1.08.78,1.28,1.97,1.32,2.55,0,.04,0,.07-.03.1-.02.03-.05.05-.08.06-.41.15-.81.31-1.2.49-.4.19-.78.39-1.15.6-.74.43-1.41.9-2.02,1.38-.71.56-1.32,1.13-1.82,1.63h0c-.22.23-.46.43-.72.61-.26.18-.53.34-.81.48-.28.13-.58.24-.88.33-.3.08-.61.14-.92.17h0c-.74.07-1.56.23-2.41.46-1.13.3-2.32.71-3.49,1.17-1.47.58-2.92,1.23-4.2,1.85-1.99.96-3.54,1.82-4.07,2.12h0s-.42.26-.42.26c-.45.29-1.01.59-1.68.89-.76.34-1.65.69-2.65,1.05-1.04.37-2.19.74-3.42,1.12-1.09.33-2.25.66-3.45.99-1.74.48-3.57.95-5.42,1.4-1.81.45-3.65.88-5.45,1.29-2.21.5-4.35.97-6.33,1.39-2.45.52-4.64.96-6.35,1.3-.03,0-.06,0-.09.01-.03,0-.06,0-.09,0-.42,0-.84.01-1.24.02-.42,0-.84,0-1.24,0-.1,0-.2,0-.3,0-.1,0-.2.01-.3.02-1.1.11-5.05.48-9.22.64-2.11.08-4.28.11-6.16.02-1.68-.08-3.31-.49-4.81-1.18-1.5-.69-2.87-1.67-4.03-2.89-.17-.18-.34-.37-.51-.57-.17-.2-.33-.4-.48-.6,0,0,0,0,0,0-.2-.26-.4-.48-.6-.68-.21-.21-.42-.41-.65-.62.03-.07.17-.47.29-.85.07-.21.12-.42.15-.55.04.05.08.1.13.14.06.06.11.11.17.15.11.08.21.13.32.17.12.04.24.06.36.06.09,0,.17,0,.26-.03.08-.02.17-.05.24-.09.08-.04.15-.09.22-.14.07-.06.12-.12.18-.19.05-.07.09-.15.13-.23.03-.08.06-.16.07-.25.01-.09.02-.17,0-.26,0-.09-.02-.17-.05-.25-.07-.24-.13-.53-.17-.85-.05-.4-.08-.85-.1-1.31-.01-.27-.02-.54-.02-.8,0-.24,0-.48,0-.7.03.1.07.19.11.28.05.13.1.25.16.37.19.41.42.78.63,1.1.32.46.62.81.79.99h0s.09.09.14.12c.05.04.1.07.16.09.06.03.11.05.17.07.06.02.12.03.18.04h0c.11.01.21,0,.3-.01.1-.02.19-.06.27-.11.08-.05.15-.12.21-.2.06-.08.11-.16.14-.25h0c.04-.08.06-.17.08-.26.02-.09.03-.18.03-.27,0-.09,0-.18-.03-.27-.02-.09-.04-.17-.08-.26-.22-.53-.39-1.17-.5-1.87-.1-.62-.16-1.28-.17-1.93-.01-.81.05-1.6.2-2.28.12-.56.31-1.05.57-1.4.12-.17.24-.3.36-.4.11-.09.21-.14.31-.17.14-.05.27-.04.4,0,.13.04.25.12.35.21h0s.03.03.05.05c.01.02.03.04.04.06,0,.02.02.04.02.06,0,.02,0,.04.01.07,0,.02,0,.05,0,.07,0,.02,0,.04-.02.07,0,.02-.02.04-.03.06s-.03.04-.04.05c-.16.16-.29.36-.39.59-.14.3-.25.65-.31,1.01-.08.43-.12.87-.13,1.26-.02.71.03,1.27.03,1.27,0,0,0,.01,0,.02v.02c.04.11.09.2.14.28.06.1.12.18.19.25.09.08.18.14.27.18.1.04.21.07.32.08.09,0,.18,0,.27,0,.09-.01.18-.04.26-.07.08-.03.17-.08.24-.13.07-.05.14-.11.2-.18.06-.07.11-.14.16-.22.04-.08.08-.16.1-.25.02-.09.04-.18.04-.27,0-.09,0-.18-.02-.27h0c-.06-.28-.04-.58.04-.89.07-.27.18-.55.34-.84.19-.35.44-.71.75-1.07.27-.31.57-.62.92-.93.04-.04.08-.07.13-.09.05-.03.1-.05.15-.06h0c.15-.05.38-.13.65-.26.19-.09.39-.21.6-.36.08-.06.17-.12.25-.19.08-.06.16-.13.24-.21.02-.02.03-.03.05-.03.02,0,.04-.01.06-.01,5.58-.18,9.83-.67,13.01-1.25,5.21-.96,7.58-2.15,8.3-2.58.11-.07.21-.14.3-.23.09-.09.17-.19.24-.29h0c.65-1.05,1.42-3.63,2.17-6.71,1.6-6.54,3.11-15.31,3.26-16.16,0-.05.02-.11.02-.16,0-.05,0-.11.01-.16.04-.94-.24-2.86-.65-5.08-.93-5.07-2.53-11.69-2.53-11.69,0,0-.01-.01-.02-.01,0,0-.01.01-.01.02.29,1.31-.24,4.1-1.11,7.33-1.8,6.66-5.05,15.2-5.56,16.52-.06.15-.12.3-.18.45-.06.15-.13.29-.2.44h0c-1.16,2.34-3.41,5.07-5.9,7.69-4.4,4.63-9.55,8.88-10.75,9.85-.08.06-.14.14-.18.23-.04.09-.07.19-.07.29,0,.13-.01.26-.03.38-.02.13-.05.26-.08.37-.06.21-.16.41-.29.59-.13.18-.29.33-.47.45,0,0,0,0,0,0-.23.15-.45.27-.65.36-.41.19-.71.24-.71.24h0s-.02,0-.03,0c0,0-.02,0-.03.02-.4.33-.75.67-1.05,1.01-.36.4-.65.79-.87,1.17-.18.32-.31.63-.39.93-.09.35-.11.69-.05,1,.01.06.01.13.01.2,0,.07-.02.13-.03.19-.02.06-.04.12-.08.18-.03.06-.07.11-.12.16-.04.05-.09.09-.15.13-.05.04-.11.07-.17.09-.06.02-.12.04-.19.05-.06,0-.13,0-.19,0h0c-.07,0-.14-.02-.2-.05-.06-.03-.12-.07-.17-.12-.05-.05-.09-.1-.13-.17-.03-.06-.06-.12-.09-.2,0-.11-.04-.59-.01-1.2.02-.37.06-.79.14-1.19.06-.31.15-.61.28-.88.09-.19.2-.37.34-.5h0s.07-.08.1-.12c.03-.04.05-.09.07-.14.02-.05.03-.1.04-.15,0-.05.01-.1,0-.15,0-.05,0-.1-.02-.15-.01-.05-.03-.1-.05-.15-.02-.05-.05-.09-.08-.13-.03-.04-.07-.08-.11-.11-.15-.13-.33-.25-.54-.31-.19-.06-.4-.06-.62,0-.13.04-.27.11-.41.22-.16.12-.32.28-.48.51-.23.31-.42.72-.55,1.2-.17.58-.27,1.25-.31,1.96-.04.79,0,1.63.11,2.43.12.88.32,1.7.6,2.35h0c.02.06.04.11.05.17.01.06.02.12.02.18,0,.06,0,.12-.02.18-.01.06-.03.11-.05.17-.02.05-.04.09-.07.14-.03.04-.06.08-.11.11-.04.03-.08.04-.13.05-.04,0-.09.01-.14,0-.04,0-.07,0-.11-.02-.03,0-.07-.02-.1-.04-.03-.01-.06-.03-.09-.05-.03-.02-.06-.04-.08-.07-.17-.17-.45-.49-.76-.93-.21-.3-.42-.64-.61-1.03-.17-.34-.31-.71-.42-1.11-.1-.37-.16-.77-.16-1.18,0-.05-.02-.1-.05-.13-.03-.03-.08-.06-.13-.06-.05,0-.1.02-.13.05-.03.03-.06.08-.06.13,0,0-.03.72-.03,1.67,0,.52.01,1.1.05,1.67.03.47.07.94.13,1.35.05.34.12.64.2.88,0,0,0,0,0,0,.02.06.04.13.04.19,0,.07,0,.13,0,.2,0,.07-.03.13-.05.19-.02.06-.05.12-.09.17s-.08.1-.13.15c-.05.04-.1.08-.16.11-.06.03-.12.06-.19.07-.06.02-.13.03-.2.03h0c-.09,0-.19-.01-.29-.04-.09-.03-.17-.07-.26-.13-.08-.05-.15-.12-.23-.21-.06-.07-.13-.15-.19-.25-.01-.02-.03-.03-.05-.04-.02,0-.04,0-.07,0-.02,0-.04.02-.06.04-.01.02-.02.04-.02.06h0s0,.18-.03.42c-.02.13-.04.27-.07.42-.02.08-.06.16-.12.22-.06.06-.14.1-.22.11-.09.01-.17,0-.25-.03s-.14-.09-.19-.16c-.29-.49-.56-1.21-.72-2.29-.14-.92-.19-2.1-.11-3.61.02-.05.32-.99.88-2.09.32-.63.73-1.31,1.23-1.9,0,0,0,0,0,0,0,0,.13-.23.28-.58.08-.17.16-.38.25-.6.25-.67.6-1.29,1.03-1.84.43-.56.95-1.05,1.53-1.45.38-.27.81-.56,1.28-.87.4-.27.84-.55,1.3-.85.49-.31.94-.66,1.37-1.05.42-.39.81-.82,1.16-1.28,1.43-1.87,3.94-5.23,5.75-7.98,1.01-1.53,1.8-2.87,2.06-3.67.03-.06,1.38-2.87,2.96-5.27.86-1.31,1.78-2.49,2.6-3.05.43-.29.86-.93,1.27-1.8.59-1.26,1.15-3.01,1.63-4.91.99-3.94,1.66-8.56,1.66-10.96h0s-1.37-8.56,2.29-14.59c1.57-2.59,4.07-4.72,8.01-5.49h0s2.33-.48,5.41-1.78c1.56-.66,3.3-1.52,5.04-2.64.03-.02.07-.04.11-.06.04-.02.07-.04.11-.06h0c.18-.08.6-.38,1-1.38.23-.58.45-1.38.61-2.52.03-.19,0-.38-.05-.56-.06-.18-.16-.34-.29-.48-.69-.69-1.75-1.68-3.02-4.36-.81-1.71-1.71-4.1-2.66-7.55-.22-.81-.38-1.64-.46-2.47-.08-.83-.09-1.68-.03-2.51.18-2.42.71-5.94,2.23-8.56,1.02-1.75,2.48-3.1,4.58-3.44,0,0,.01,0,.01,0,0,0,0-.01,0-.02,0,0-.95-1.43-.91-2.85.02-.64.23-1.27.82-1.77l.09-.08h0s0,0,0,0c0,0,.02-.02.04-.03.06-.05.19-.16.37-.29.75-.56,2.42-1.66,4.32-1.81,1.5-.12,3.14.35,4.57,2.12l.03.03c.14.15,1,1.15,1.06,2.37.04.73-.21,1.55-1.08,2.31,0,0,0,.01,0,.02,0,0,0,.01.01.01,0,0,3.16.63,5.08,4.27,1.13,2.14,1.83,5.32,1.21,10.02,0,0,0,0,0,0,0,0-.25,3.58-1.71,7.62-.83,2.3-2.04,4.75-3.82,6.78-.27.3-.45.66-.55,1.04-.1.38-.1.78-.02,1.18.1.43.28.92.62,1.43.25.38.59.78,1.03,1.17.11.1.23.19.36.28.13.08.26.16.39.22,1.12.54,4.94,2.36,8.66,4.15,2.13,1.02,4.23,2.03,5.77,2.78.47.23.9.55,1.25.93.36.38.65.82.85,1.31.54,1.29,1.27,3.3,1.81,5.66.41,1.81.7,3.83.69,5.89,0,.13,0,.26,0,.39,0,.13,0,.26.02.39h0c.1,1.59.51,7.31,1.6,12.48.67,3.18,1.6,6.15,2.87,7.84.09.12.18.25.26.37.08.13.17.26.24.39.9,1.54,3.93,6.75,6.71,11.56,1.8,3.1,3.49,6.04,4.45,7.72.17.3.36.58.58.85.22.26.46.51.72.73.38.32.86.74,1.38,1.19.45.39.92.81,1.36,1.21.64.58,1.21,1.22,1.71,1.92.5.7.91,1.45,1.25,2.24.68,1.62,1.52,3.83,1.86,5.59.2,1.06.22,1.96-.09,2.47-.15.25-.29.51-.41.78-.12.27-.21.55-.29.83-.07.26-.15.54-.26.85-.09.27-.19.55-.3.84-.02.04-.05.08-.09.1-.04.02-.08.03-.13.03-.05,0-.09-.02-.13-.04-.04-.02-.08-.04-.12-.07-.19-.14-.32-.38-.41-.65-.18-.54-.19-1.16-.19-1.16h0s0-.05-.02-.06c-.01-.02-.03-.03-.06-.04-.02,0-.05,0-.07,0-.02,0-.04.02-.05.04-.06.09-.12.18-.19.25-.08.08-.15.15-.23.21-.09.06-.17.1-.26.13-.1.03-.19.04-.29.04h0c-.07,0-.13,0-.2-.03-.06-.02-.13-.04-.19-.07-.06-.03-.11-.07-.16-.11-.05-.04-.09-.09-.13-.15-.04-.05-.07-.11-.09-.17-.02-.06-.04-.13-.05-.19,0-.06,0-.13,0-.2,0-.06.02-.13.04-.19h0c.08-.24.15-.55.2-.88.06-.41.11-.87.13-1.35.03-.57.04-1.16.05-1.67,0-.95-.03-1.67-.03-1.67,0-.05-.03-.1-.06-.13-.04-.03-.08-.05-.14-.05-.05,0-.1.02-.13.06-.03.03-.05.08-.05.13,0,.41-.06.8-.16,1.17-.1.4-.25.77-.42,1.11-.19.39-.4.74-.61,1.03-.3.43-.59.76-.76.93-.03.03-.05.05-.08.07-.03.02-.06.04-.09.05-.03.02-.07.03-.1.04-.03,0-.07.02-.1.02-.05,0-.1,0-.14,0-.05,0-.09-.03-.13-.05-.04-.03-.08-.07-.11-.11-.03-.04-.05-.09-.07-.14-.02-.05-.04-.11-.05-.17-.01-.06-.02-.12-.02-.17,0-.06,0-.12.02-.17.01-.06.03-.11.05-.17h0c.27-.65.47-1.48.59-2.36.11-.79.15-1.63.11-2.43-.04-.71-.14-1.38-.31-1.95-.14-.47-.32-.88-.55-1.2-.18-.24-.34-.42-.49-.54-.16-.13-.3-.21-.43-.24-.13-.03-.24-.03-.34,0-.11.03-.21.1-.29.18-.04.04-.07.08-.09.12-.03.04-.05.09-.07.13-.02.05-.03.1-.04.14,0,.05-.01.1-.01.15,0,.05,0,.1.02.15.01.05.03.1.05.14.02.05.05.09.07.13.03.04.06.08.1.11,0,0,0,0,0,0,.15.14.25.32.32.53.1.27.14.6.15.93.02.43-.01.87-.06,1.26-.08.67-.22,1.19-.23,1.24-.03.09-.07.17-.1.23-.05.08-.1.14-.16.19-.07.05-.14.08-.22.09-.08.01-.16,0-.24,0-.12-.02-.23-.06-.33-.12-.1-.06-.19-.14-.27-.23-.08-.09-.14-.19-.18-.31-.04-.11-.06-.23-.06-.35h0c0-.42-.14-.95-.38-1.54-.26-.66-.64-1.39-1.09-2.11-.27-.43-.57-.86-.88-1.26-.33-.43-.66-.82-1-1.17-.02-.02-.03-.04-.04-.07,0-.03,0-.05,0-.08.33-.89.3-1.62.1-2.2-.35-1.05-1.21-1.62-1.39-1.72l-.03-.02c-1.36-.89-3.48-3.15-5.61-5.65-3.56-4.17-7.17-9.03-7.44-9.39,0,0-.05-.06-.05-.06-1.51-1.98-2.72-5.13-3.66-8.43-1.85-6.5-2.67-13.59-2.67-13.59,0,0,0-.01-.02-.02,0,0-.02,0-.02.01-2.04,7.89-2.56,14.54-2.27,20,.61,11.66,4.89,17.89,5.81,19.09h0s.04.07.04.11c0,.04-.02.08-.05.11-.27.28-.55.51-.83.73-.29.22-.59.41-.93.6-.91.51-1.89.87-2.82,1.12-1.14.31-2.21.46-2.99.53-.17.01-.33.02-.5.02-.17,0-.33,0-.5-.02-.17-.01-.33-.03-.5-.06-.16-.03-.33-.06-.49-.1h0c-.57-.14-1.1-.21-1.58-.25-.6-.04-1.13-.01-1.6.07-.62.1-1.13.29-1.55.51-.6.32-1.02.7-1.28,1.01-.13.16-.27.3-.42.44-.15.14-.31.27-.47.39-.16.12-.34.23-.51.33-.18.1-.36.19-.55.27h0c-.3.13-.62.25-.95.37-.32.11-.64.22-.97.32-.51.15-1.01.29-1.48.41-.56.14-1.08.26-1.5.35-.16.03-.32.06-.48.08-.16.02-.32.03-.48.03-.16,0-.32,0-.48-.01-.16-.01-.32-.03-.48-.06h0c-.68-.11-1.35-.22-2-.32-.68-.11-1.35-.21-2-.31-1.04-.15-2.04-.3-3.01-.43-1.04-.14-2.05-.27-3.02-.38-1.05-.13-2.06-.24-3.03-.34-1.06-.11-2.07-.2-3.03-.28-1.65-.13-3.17-.23-4.56-.29-1.71-.07-3.22-.09-4.57-.07-2.89.04-5,.27-6.53.56-3.44.66-3.98,1.65-3.98,1.65,0,.02-.01.04,0,.05,0,.02.02.03.03.04.02,0,.04.01.05,0,.02,0,.03-.02.04-.03ZM141.36,48.49s0,0,0,0l-.09.08c-.59.51-.81,1.16-.83,1.8-.04,1.33.78,2.66.9,2.85-2.09.35-3.56,1.7-4.58,3.46-1.52,2.62-2.05,6.14-2.24,8.57-.06.84-.05,1.68.03,2.52.08.84.24,1.67.46,2.48.95,3.45,1.85,5.84,2.66,7.55,1.28,2.69,2.34,3.67,3.03,4.37.13.13.23.29.29.46.06.17.07.36.05.54-.16,1.13-.38,1.94-.61,2.51-.39.99-.81,1.28-.99,1.37-.04.02-.08.04-.11.06-.04.02-.07.04-.11.06-1.74,1.12-3.48,1.98-5.04,2.64-3.07,1.3-5.39,1.78-5.4,1.78-3.95.78-6.45,2.91-8.03,5.51-3.64,6-2.31,14.5-2.29,14.61,0,2.4-.67,7.01-1.65,10.95-.48,1.91-1.03,3.65-1.62,4.91-.41.87-.83,1.5-1.26,1.79-.82.56-1.75,1.75-2.61,3.06-1.6,2.43-2.96,5.28-2.96,5.28,0,0,0,0,0,0-.27.8-1.05,2.14-2.06,3.66-1.81,2.75-4.32,6.11-5.75,7.98-.35.46-.74.88-1.16,1.27-.42.39-.88.74-1.36,1.05-.46.3-.9.58-1.3.85-.47.31-.9.61-1.28.87-.59.41-1.1.9-1.54,1.46-.43.56-.78,1.18-1.03,1.85-.08.22-.17.42-.25.59-.15.33-.27.55-.28.58-.5.6-.91,1.28-1.23,1.91-.58,1.13-.89,2.1-.89,2.1,0,0,0,0,0,0-.09,1.51-.03,2.7.11,3.62.16,1.08.43,1.81.72,2.3h0c.05.08.12.14.2.18.08.04.17.05.27.04.09-.02.18-.06.24-.12.06-.06.11-.14.13-.23.03-.15.06-.29.07-.42.03-.24.03-.42.03-.42,0-.02,0-.03.02-.04,0-.01.02-.02.04-.02.01,0,.03,0,.04,0,.01,0,.03.02.03.03.06.1.13.18.19.25.08.09.16.16.24.21.09.06.18.11.27.14.1.03.2.05.3.04h0c.07,0,.14-.01.21-.03.07-.02.13-.04.19-.07.06-.03.12-.07.17-.12.05-.05.1-.1.14-.15.04-.06.07-.12.1-.18.03-.06.04-.13.05-.2,0-.07.01-.14,0-.2,0-.07-.02-.13-.04-.2h0c-.08-.24-.15-.54-.2-.88-.06-.41-.1-.87-.13-1.34-.03-.57-.04-1.15-.05-1.67,0-.94.03-1.66.03-1.67,0-.04.02-.08.05-.1.03-.03.07-.04.11-.04.04,0,.08.02.11.05.03.03.04.07.04.11,0,.41.06.81.16,1.18.1.4.25.78.42,1.12.19.39.41.74.61,1.04.31.44.59.76.76.93,0,0,0,0,0,0,.03.03.06.05.09.07.03.02.06.04.1.06.03.02.07.03.11.04.04.01.07.02.11.02.06,0,.11,0,.15,0,.06-.01.1-.03.14-.06.05-.03.08-.07.12-.12.03-.04.06-.09.08-.14,0,0,0,0,0,0,.02-.06.04-.12.05-.18.01-.06.02-.12.02-.18,0-.06,0-.12-.02-.18-.01-.06-.03-.12-.05-.17h0c-.27-.65-.47-1.47-.59-2.35-.11-.79-.15-1.63-.11-2.42.04-.7.14-1.37.3-1.95.14-.47.32-.88.55-1.19.13-.18.26-.32.39-.43.17-.15.34-.24.49-.29.22-.07.42-.06.6,0,.2.06.38.17.53.3.04.03.07.07.1.11.03.04.06.08.08.13.02.04.04.09.05.14.01.05.02.1.02.15,0,.05,0,.1,0,.15,0,.05-.02.1-.04.14-.02.05-.04.09-.07.13-.03.04-.06.08-.09.12h0c-.14.14-.25.32-.35.51-.13.27-.21.57-.28.89-.08.41-.12.82-.14,1.2-.03.61,0,1.11.01,1.21,0,0,0,0,0,0,.03.08.06.15.09.21.04.07.09.13.14.18.06.06.12.1.18.13.07.03.14.05.21.06h0c.07,0,.13,0,.2,0,.07,0,.13-.02.19-.05.06-.02.12-.05.18-.09.06-.04.11-.08.15-.13.05-.05.09-.1.12-.16.03-.06.06-.12.08-.19.02-.07.03-.13.03-.2,0-.07,0-.14-.01-.2-.06-.31-.04-.64.05-.99.08-.3.21-.6.38-.92.22-.38.51-.77.86-1.16.3-.33.65-.67,1.05-1h0s.01,0,.02-.01c0,0,.01,0,.02,0,0,0,.3-.06.72-.24.2-.09.42-.21.66-.37h0c.19-.13.35-.28.48-.46.13-.18.23-.38.29-.6.03-.11.06-.24.08-.37.02-.12.03-.25.03-.38,0-.1.02-.19.06-.27.04-.08.1-.16.17-.22h0c1.2-.98,6.35-5.23,10.75-9.86,2.49-2.62,4.74-5.36,5.9-7.7.07-.14.14-.29.21-.44.06-.15.13-.3.18-.45.51-1.31,3.76-9.85,5.56-16.52.8-2.94,1.31-5.52,1.17-6.95.36,1.49,1.64,6.96,2.44,11.29.41,2.21.69,4.13.65,5.07,0,.05,0,.11-.01.16,0,.05-.01.11-.02.16-.15.85-1.66,9.61-3.26,16.15-.75,3.07-1.51,5.65-2.16,6.7-.07.11-.14.2-.23.29-.09.09-.19.16-.29.23-.72.43-3.08,1.62-8.29,2.57-3.18.58-7.43,1.08-13.01,1.25-.03,0-.05,0-.08.02-.02,0-.05.02-.06.04-.08.07-.16.14-.24.2-.08.07-.17.13-.25.19-.21.15-.41.26-.6.35-.27.13-.5.21-.64.26-.05.02-.11.04-.16.07-.05.03-.1.06-.14.1-.35.31-.66.63-.92.94-.31.36-.57.72-.76,1.07-.16.29-.27.57-.34.84-.08.32-.1.62-.04.91h0c.02.09.02.17.02.26,0,.09-.02.17-.04.26-.02.08-.06.17-.1.24-.04.08-.09.15-.15.21-.06.07-.13.12-.2.17-.07.05-.15.09-.23.12-.08.03-.17.06-.26.07-.09.01-.18.01-.26,0h0c-.11,0-.21-.03-.31-.08-.09-.04-.18-.1-.27-.18-.07-.06-.13-.14-.19-.24-.05-.08-.09-.17-.13-.28,0,0,0-.01,0-.02v-.02s-.06-.55-.04-1.26c.01-.39.05-.83.13-1.25.07-.36.17-.7.31-1,.11-.22.23-.42.39-.58.02-.02.03-.04.05-.06.01-.02.02-.04.03-.07,0-.02.01-.05.02-.07,0-.02,0-.05,0-.07,0-.03,0-.05-.01-.07,0-.02-.01-.05-.03-.07-.01-.02-.02-.04-.04-.06-.01-.02-.03-.04-.05-.05,0,0,0,0,0,0h0c-.1-.09-.22-.17-.36-.21-.13-.04-.27-.05-.42,0-.1.03-.21.09-.32.18-.12.1-.24.23-.37.4-.26.36-.45.85-.57,1.42-.15.68-.21,1.48-.2,2.29.01.65.07,1.31.17,1.93.11.7.28,1.34.5,1.87h0c.03.08.06.17.08.25.02.09.03.17.03.26,0,.09,0,.17-.03.26-.02.09-.04.17-.08.25h0c-.04.09-.08.17-.14.24-.06.07-.12.14-.2.19-.08.05-.16.09-.26.11-.09.02-.18.02-.29.01h0c-.06,0-.12-.02-.18-.03-.06-.02-.11-.04-.17-.06-.05-.03-.1-.06-.15-.09-.05-.03-.09-.07-.14-.12h0c-.17-.19-.47-.53-.79-.99-.21-.31-.43-.68-.63-1.09-.06-.12-.11-.24-.16-.37-.05-.12-.09-.25-.14-.38,0,0-.01-.01-.02-.01,0,0-.01,0-.01.02,0,.26,0,.53,0,.8,0,.26,0,.53.02.8.02.46.05.91.1,1.31.04.33.1.62.17.86h0c.03.08.04.16.05.25,0,.08,0,.17,0,.25-.01.08-.04.16-.07.24-.03.08-.07.15-.12.22-.05.07-.11.13-.17.18-.06.05-.13.1-.21.14-.07.04-.15.07-.23.08-.08.02-.16.03-.25.03h0c-.11,0-.23-.02-.35-.06-.1-.04-.21-.09-.31-.17-.06-.04-.11-.09-.17-.15-.05-.05-.1-.11-.15-.17,0,0-.01,0-.02,0,0,0-.01,0-.01.01-.02.13-.08.35-.15.58-.13.41-.3.86-.3.86,0,0,0,.01,0,.02,0,0,0,0,0,0,.24.21.45.41.66.63.2.21.4.43.6.68.14.2.31.4.48.6.17.2.35.39.51.57h0c1.16,1.23,2.53,2.2,4.04,2.9,1.5.69,3.14,1.1,4.83,1.18,1.88.09,4.05.06,6.17-.02,4.17-.16,8.13-.53,9.23-.64h0c.1-.01.2-.02.3-.02.1,0,.2,0,.3,0,.4,0,.82,0,1.24,0,.41,0,.82,0,1.24-.02.03,0,.06,0,.09,0,.03,0,.06,0,.09-.01,1.71-.34,3.9-.78,6.35-1.3,1.98-.42,4.12-.89,6.33-1.39,1.8-.41,3.64-.84,5.45-1.29,1.85-.46,3.68-.93,5.42-1.4,1.2-.33,2.36-.66,3.45-.99,1.23-.37,2.38-.75,3.42-1.12,1-.35,1.89-.71,2.65-1.05.67-.3,1.23-.6,1.68-.89l.42-.26c.53-.3,2.08-1.16,4.07-2.12,1.27-.62,2.72-1.27,4.19-1.85,1.18-.46,2.37-.87,3.49-1.17.85-.22,1.67-.39,2.41-.46h0c.32-.03.63-.09.93-.17.31-.08.6-.19.89-.33.29-.14.56-.3.82-.48.26-.18.5-.39.72-.62h0c.49-.5,1.1-1.07,1.81-1.63.6-.48,1.27-.95,2.01-1.38.37-.21.75-.41,1.14-.6.38-.18.78-.35,1.19-.49.04-.01.07-.04.1-.07.02-.03.04-.07.03-.12h0c-.03-.59-.24-1.79-1.33-2.58-.62-.45-1.53-.76-2.85-.75-.23,0-.46.03-.69.07-.23.04-.45.11-.67.2-.41.16-1.04.38-1.77.52-.57.11-1.2.17-1.84.13-.42-.03-.84,0-1.25.07-.41.07-.81.19-1.2.35-.39.16-.81.33-1.18.49-.3.13-.58.25-.78.35,0,0,0,0,0,0-.29.32-.61.61-.95.87-.34.27-.7.51-1.07.72-.92.53-1.9.91-2.84,1.18-1.16.33-2.24.5-3.02.58h0c-.17.02-.35.03-.52.03-.17,0-.35,0-.52-.01-.17-.01-.35-.03-.52-.05-.17-.02-.34-.06-.52-.09-.55-.12-1.06-.19-1.53-.22-.58-.03-1.09,0-1.54.08-.57.1-1.04.28-1.43.48-.56.3-.94.66-1.18.94-.14.17-.29.33-.45.48-.16.15-.33.29-.5.42-.17.13-.36.25-.55.36-.19.11-.38.21-.58.3-.31.14-.63.26-.97.39-.32.12-.66.23-.99.33-.51.16-1.02.3-1.49.43-.57.15-1.09.27-1.51.37h0c-.17.04-.34.07-.52.09-.17.02-.35.03-.52.04-.17,0-.35,0-.52-.01-.17-.01-.35-.03-.52-.06-.68-.11-1.35-.22-2-.32-.68-.11-1.35-.21-2-.31-1.04-.16-2.04-.3-3.01-.44-1.04-.15-2.04-.28-3.01-.4-1.05-.13-2.05-.25-3.02-.36-1.06-.12-2.06-.22-3.02-.31-1.65-.15-3.16-.26-4.54-.34-1.7-.09-3.21-.13-4.55-.13-2.85,0-4.94.2-6.45.46-3.42.59-3.97,1.55-3.97,1.55v.03s0-.03,0-.03c0,0-.01.01-.02.02,0,0-.02,0-.03,0,0,0-.01-.01-.02-.02,0,0,0-.02,0-.03,0,0,.54-.98,3.96-1.64,1.53-.29,3.63-.52,6.52-.56,1.34-.02,2.86,0,4.57.07,1.39.06,2.9.15,4.56.29.96.08,1.97.17,3.03.28.97.1,1.97.21,3.02.34.97.12,1.97.24,3.02.38.97.13,1.97.27,3.01.43.65.1,1.32.2,2,.31.65.1,1.32.21,2,.32.16.03.32.05.48.06.16.01.32.02.48.01.16,0,.32-.01.48-.03.16-.02.32-.05.48-.08.42-.09.94-.21,1.5-.35.47-.12.98-.26,1.48-.41.33-.1.65-.21.97-.32.33-.12.65-.24.95-.37.19-.08.37-.17.55-.27.18-.1.35-.21.52-.34.17-.12.32-.25.47-.39.15-.14.29-.29.43-.45.26-.3.67-.69,1.27-1,.42-.22.92-.4,1.54-.5.47-.08,1-.11,1.59-.07.48.03,1.01.11,1.58.25.16.04.33.07.49.1.17.03.33.04.5.06.17.01.34.02.5.02.17,0,.34,0,.5-.02.78-.07,1.85-.22,2.99-.53.93-.25,1.91-.61,2.82-1.12.34-.19.65-.38.94-.6.29-.22.56-.45.84-.73.04-.04.06-.08.06-.13,0-.05-.01-.1-.04-.14-.92-1.2-5.19-7.41-5.8-19.07-.29-5.44.23-12.06,2.24-19.9.1.84.92,7.44,2.66,13.51.94,3.3,2.15,6.46,3.66,8.44l.05.06c.27.36,3.88,5.22,7.44,9.39,2.14,2.51,4.26,4.77,5.62,5.66l.03.02c.17.1,1.02.67,1.37,1.7.19.58.23,1.31-.1,2.18-.01.03-.01.06,0,.1,0,.03.02.06.05.09.33.35.67.74,1,1.17.31.4.6.83.87,1.26.45.71.83,1.44,1.09,2.1.23.58.37,1.11.38,1.52h0c0,.13.02.25.07.36.04.12.11.22.18.32.08.09.17.17.28.24.1.06.22.1.34.13.08.02.17.02.25,0,.08-.01.16-.05.23-.1.05-.04.1-.09.14-.16.05-.08.1-.17.14-.28,0,0,0,0,0,0,.01-.05.15-.58.23-1.25.05-.39.08-.84.06-1.27-.01-.34-.06-.66-.16-.94-.08-.22-.18-.4-.33-.54h0s-.07-.07-.09-.11c-.03-.04-.05-.08-.07-.12-.02-.04-.03-.09-.04-.14-.01-.05-.02-.09-.02-.14,0-.05,0-.1.01-.14,0-.05.02-.09.04-.14.02-.04.04-.09.07-.13.03-.04.06-.08.09-.11.08-.08.17-.14.27-.17.09-.03.2-.03.32,0,.12.03.26.1.41.23.15.12.31.29.49.53.23.31.41.72.55,1.18.17.57.27,1.24.31,1.94.04.79,0,1.63-.11,2.42-.12.87-.32,1.69-.59,2.34h0c-.02.06-.04.12-.05.18-.01.06-.02.12-.02.18,0,.06,0,.12.02.18.01.06.03.12.05.17h0s.05.1.08.14c.03.04.07.08.12.12.04.03.09.05.14.06.05,0,.1.01.15,0,.04,0,.07-.01.11-.02.04,0,.07-.02.11-.04.03-.02.07-.03.1-.06.03-.02.06-.05.09-.07,0,0,0,0,0,0,.17-.17.45-.5.76-.93.21-.3.42-.64.61-1.03.17-.34.31-.72.42-1.12.1-.37.16-.77.16-1.18h0s.02-.08.05-.11c.03-.03.07-.05.11-.05.04,0,.08.01.11.04.03.03.05.07.05.11,0,0,.03.73.03,1.67,0,.52-.01,1.1-.05,1.67-.03.47-.07.93-.13,1.34-.05.33-.12.63-.2.88h0c-.02.07-.04.13-.04.2,0,.07,0,.14,0,.2,0,.07.03.13.05.2.02.06.06.12.1.18.04.06.09.11.14.15.05.05.11.08.17.12.06.03.13.06.19.07.07.02.14.03.21.03h0c.1,0,.2-.01.3-.04.09-.03.18-.07.27-.14.08-.06.16-.13.23-.21.06-.07.13-.15.19-.25h0s.02-.02.04-.03c.01,0,.03,0,.05,0,.02,0,.03.01.04.02,0,.01.02.03.02.04,0,.01.02.63.19,1.17.09.28.22.53.42.67.04.03.08.05.12.07.04.02.09.03.14.04,0,0,0,0,0,0,.05,0,.11,0,.15-.03.04-.03.08-.07.1-.12.12-.29.22-.57.31-.84.1-.31.19-.6.26-.86.08-.28.17-.56.29-.83.12-.27.25-.53.4-.77h0c.31-.51.3-1.42.09-2.49-.34-1.76-1.18-3.97-1.86-5.59-.34-.8-.76-1.55-1.25-2.25-.5-.7-1.07-1.35-1.71-1.93-.44-.4-.92-.82-1.36-1.21-.52-.45-1-.87-1.38-1.19-.26-.22-.5-.46-.71-.73-.22-.26-.41-.54-.57-.84-.96-1.68-2.65-4.62-4.45-7.72-2.79-4.81-5.81-10.02-6.71-11.56-.08-.13-.16-.26-.24-.39-.09-.13-.17-.25-.27-.38-1.27-1.68-2.2-4.65-2.86-7.82-1.09-5.17-1.5-10.89-1.6-12.48,0-.13-.01-.26-.02-.39,0-.13,0-.26,0-.39,0-2.07-.28-4.09-.7-5.9-.54-2.36-1.27-4.37-1.81-5.66-.21-.49-.5-.94-.86-1.32-.36-.38-.79-.7-1.26-.93-1.54-.75-3.64-1.76-5.77-2.78-3.72-1.79-7.54-3.61-8.66-4.15-.14-.06-.27-.14-.39-.22-.12-.08-.24-.17-.35-.27-.44-.39-.78-.78-1.03-1.16-.34-.51-.52-.99-.62-1.42-.09-.39-.08-.79.02-1.16.1-.38.28-.73.54-1.03,1.78-2.04,3-4.49,3.83-6.79,1.46-4.05,1.71-7.63,1.71-7.63.62-4.71-.08-7.9-1.21-10.04-1.81-3.44-4.73-4.2-5.07-4.28.85-.77,1.1-1.58,1.06-2.31-.06-1.24-.93-2.24-1.07-2.39l-.03-.03c-1.45-1.79-3.09-2.26-4.6-2.14-1.91.15-3.59,1.25-4.34,1.81-.18.14-.31.24-.37.3l-.04.03Z"/>
  </g>
  <g>
    <g>
      <path class="cls-3" d="M189.2,235.35h-1.53v7.91s.13.09.08.13l-1.44-.72v-3h-2.67c-.29.34,0,.89-.21,1.3-.44.69-2.12-1-2.26-1.46-.29-.96.28-.99,1.07-.93l-.09-3.21h-2.5c-.12.07-.12.17-.13.29-.19,1.63.05,3.91.09,5.58.02.72-.02,1.44,0,2.16l-1.36-.59v-3.76l-.13-.11s-.06.07-.08.07h-2.17c.58,2.8-1.91.8-2.02-.49-.02-.27.26-.7.54-.7h3.86v-2.33l-.13-.13h-5.73v8.03l-1.36-.72v-3.09c-1.22.53-2.28.15-3.35-.5-.25.34-.54.65-.98.76-.12.16.65,1.02.8,1.18.56.59,1.25,1.08,1.82,1.66l-.76.75c-.84-.83-1.67-1.76-2.36-2.72-.42-.58-1.96-2.5-.61-2.86.68-.18.96.63,1.26.07.23-.44.19-2.13-.19-2.56h-3.18l.04,8.03c-.33-.13-1.33-.45-1.4-.81s-.01-1.19,0-1.61c.04-1.6.28-3.76.09-5.33-.01-.12-.01-.22-.13-.29h-2v8.03l-1.36-.72v-7.31l-2.12-.08c.18.51.45.93.51,1.48.19,1.89-.85,3.23-2.46,4.07.42.89,1.31,1.4,2.02,2.03l-.63.97c-.24.04-.76-.65-.92-.86-.26-.34-1.02-1.73-1.19-1.86-.24-.18-.5.01-.76,0-1.49-.06-1.67-1.96-.35-2.03.86-.05.92.7,1.18.67.55-.28,1-.69,1.33-1.22-.43-.23-.92-.29-1.36-.5-.96-.47-1.81-1.39-1.46-2.54l-.11-.12h-2.08l.08,7.74.09.17c1.81.96,1.48,3.46-.72,3.6-1.17.07-2.4-.49-3.27-1.23-.15-.13-1.16-1.12-1.18-1.2-.06-.22.25-.38.37-.53,1.05,1.11,2.24,2.29,3.93,1.89.68-.16,1.62-1.26.86-1.76-.67-.44-1.58.65-1.72.62l-.81-.97c.35-.37.85-.56,1.35-.63.02-.27-.29-.2-.34-.46-.08-.4.08-.81.09-1.18.02-.8-.02-1.61,0-2.41h-2.38v1.23c0,.06-.21.2-.3.21-.7.1-1.8-1.44-1.73-2.07.02-.24.33-.56.55-.56h3.86v-2.33l-.13-.13h-5.82l.04,8.03c-.33-.1-1.33-.48-1.4-.81.03-2.42.09-4.82,0-7.23h-2.04v8.03l-1.36-.59v-7.44h-2.46c.05.98.48,4.42-.08,5.1s-2.38-1.08-2.47-1.77c-.14-1.1,1.35-.54,1.44-.63-.02-.52.03-1.05,0-1.56-.02-.33-.06-.89-.21-1.14h-2.76v8.03l-1.36-.59v-7.44h-2c-.12.07-.12.17-.13.29-.21,1.77.04,4.35.09,6.17.02.52-.02,1.05,0,1.57l-1.43-.73c-.01-.07.07-.14.07-.16v-2.16c-.34.11-.56.36-.91.49-2.16.81-3.99-.89-4.27-2.94,1.05-.09,2.79-1,1.74-2.2-.56-.64-1.58-.18-2.34-.38l-.51-1.06h9.68c-.01-.18-.19-.35-.31-.5-.38-.5-1.38-1.72-1.89-2.01-.62-.36-1.15-.18-1.79-.04l-.6-1.43c1.84-.64,2.7.5,3.73,1.74.46.56,1.09,1.64,1.57,2.07.08.07.14.16.26.16h57.06c.39.04.57.76.72,1.1ZM154.7,235.03c-.47.04-.86.49-.91.95-.13,1.13.83,1.77,1.82,1.98.64-.74.32-3.05-.9-2.94ZM124.41,235.44c1.29,1.77.63,2.81-1.32,3.38-.08.38.31.82.64.98,1.16.59,2.54-.35,3.32-1.19v-3.13c-.12-.19-.18-.04-.21-.04h-2.42ZM171.02,235.35c-.88.03-2.11.23-2.97.04-.1-.02-.1-.1-.09.09.02.28.19.58.23.87.11.68.14,1.37-.13,2.01l.06.08c.98.53,2.1.21,2.89-.51v-2.58ZM186.31,235.44h-2.8v3.13h2.8v-3.13Z"/>
      <path class="cls-3" d="M104.62,234.26h4.33l.51,1.1h-1.49c-.12.07-.12.17-.13.29-.19,1.57.06,3.72.09,5.33.02.8.02,1.62-.05,2.41l-1.32-.65v-3.24c-.69.23-1.31-.02-1.95-.25.61,1.94-.48,3.25-2.5,3.04-1.75-.18-2.95-2.16-3.6-3.61-.02-.19.58-.43.67-.36.37,1.34,1.96,3.38,3.54,2.72.87-.36,1.2-1.46.69-2.24s-1.3.15-2.05.1l-.65-1.17c.99-.14,2.64-.44,2.64-1.74,0-1.51-2.43-.53-3.02.12-.09,0-.77-1.02-.69-1.18.19-.35,1.55-.76,1.96-.77,2.01-.06,3.86,2.32,2,3.85.71.51,1.48.7,2.32.36.14-.06.56-.29.61-.4.07-.15.08-2.05.05-2.33-.01-.12-.01-.22-.13-.29h-1.27l-.55-1.1Z"/>
      <path class="cls-3" d="M115.32,235.35l-.94-.04-.51-1.06h3.69l.55,1.1h-1.4c-.12.07-.12.17-.13.29-.2,1.69.05,4.1.09,5.84.02.63-.02,1.27,0,1.91l-1.36-.59v-2.37c-2.14,1.7-4.67.5-5.69-1.77.6-.2,1.4-.39,1.9-.78.09-.07.18-.08.14-.24-1.46-.09-2.95-1.88-1.61-3.09,1.68-1.53,5.12,1.02,3.35,3.33-.58.76-1.45,1.08-2.24,1.57.46.93,1.72.85,2.54.51.31-.13,1.61-1.07,1.61-1.35v-3.26ZM111.65,234.95c-1.35.22-.9,2.38.47,2.34.9-.54.85-2.55-.47-2.34Z"/>
    </g>
    <g>
      <g>
        <polygon class="cls-3" points="195.02 234.26 195.02 244.15 193.66 243.35 193.66 233.49 195.02 234.26"/>
        <polygon class="cls-3" points="198.16 244.15 196.8 243.35 196.8 233.49 198.16 234.38 198.16 244.15"/>
      </g>
      <g>
        <polygon class="cls-3" points="94.05 234.26 94.05 244.15 92.7 243.39 92.7 233.49 94.05 234.26"/>
        <polygon class="cls-3" points="90.91 234.26 90.91 244.15 89.55 243.39 89.55 233.58 90.91 234.26"/>
      </g>
    </g>
    <path class="cls-3" d="M185.37,243.81c.68-.2,1.49-.31,2.15.01.32.16.95.77,1.25,1.04.56.51,1.07,1.09,1.6,1.62l-.37.54c-1.17-.97-2.16-2.92-3.95-2.06l-.68-1.15Z"/>
  </g>
  <g>
    <g>
      <path class="cls-3" d="M99.2,225.26c-.04-.06-.06-.12-.06-.2,0-.13.03-.21.08-.23.04-.03.13-.04.25-.04.25,0,.44-.05.56-.14.12-.09.2-.2.23-.34.03-.13.05-.31.06-.53v-6.2h-.9c-.29,0-.52.07-.68.19-.16.12-.28.29-.36.52s-.15.56-.21.98c0,.07-.06.13-.16.17-.1.04-.2.07-.3.07-.08,0-.15-.02-.21-.07s-.1-.11-.1-.19l.04-1.83c0-.21.12-.31.35-.31h6.36c.23,0,.34.1.34.31l.05,1.83c0,.08-.03.14-.1.19s-.14.07-.22.07c-.1,0-.2-.02-.29-.07-.09-.04-.14-.1-.15-.17-.07-.43-.14-.76-.22-.99-.08-.23-.2-.4-.36-.51s-.39-.18-.69-.19h-.88v6.2c0,.22.03.39.06.53.03.13.11.25.23.34.12.09.31.14.56.14h.08c.08,0,.14.01.18.04s.06.11.07.23c0,.08-.02.15-.06.2-.04.06-.1.08-.18.08-.55-.03-1.07-.04-1.53-.04-.52,0-1.06.01-1.62.04-.08,0-.14-.03-.18-.08Z"/>
      <path class="cls-3" d="M105.47,225.26c-.04-.06-.06-.12-.06-.2,0-.13.03-.21.08-.23.04-.03.13-.04.25-.04.25,0,.44-.05.56-.14s.2-.2.23-.34c.03-.13.05-.31.06-.53v-5.16c0-.22-.03-.39-.06-.53-.03-.13-.11-.25-.23-.34-.12-.09-.31-.14-.56-.14h-.08c-.09,0-.15-.02-.18-.05s-.06-.11-.06-.23c0-.08.02-.14.06-.2s.1-.08.18-.08c.56.03,1.07.04,1.53.04.52,0,1.06-.01,1.62-.04.08,0,.14.03.18.08s.06.12.06.2c0,.13-.03.21-.08.23-.04.03-.13.04-.25.04-.25,0-.44.04-.56.14-.12.09-.2.2-.23.34-.03.13-.05.31-.06.53v2.3h4.08v-2.3c0-.22-.03-.39-.06-.53-.03-.13-.11-.25-.23-.34-.12-.09-.31-.14-.56-.14h-.08c-.09,0-.15-.02-.19-.05s-.06-.11-.07-.23c0-.08.02-.14.06-.2s.1-.08.17-.08c.56.03,1.1.04,1.62.04.48,0,.99-.01,1.55-.04.08,0,.14.03.18.08s.06.12.06.2c0,.13-.04.21-.08.23-.05.03-.13.04-.24.04-.25,0-.44.04-.57.14-.13.09-.2.2-.23.34-.03.13-.05.31-.06.53v5.16c0,.22.03.39.06.53.03.13.11.25.23.34.13.09.31.14.57.14h.08c.08,0,.14.01.18.04s.06.11.07.23c0,.08-.02.15-.06.2-.04.06-.1.08-.18.08-.55-.03-1.07-.04-1.56-.04-.51,0-1.05.01-1.61.04-.07,0-.13-.03-.17-.08-.04-.06-.06-.12-.06-.2,0-.13.04-.21.08-.23.05-.03.13-.04.25-.04.25,0,.44-.05.56-.14.12-.09.2-.2.23-.34.03-.13.05-.31.06-.53v-2.3h-4.08v2.3c0,.22.03.39.06.53.03.13.11.25.23.34.12.09.31.14.56.14h.08c.09,0,.15.01.18.04s.06.11.06.23c0,.08-.02.15-.06.2-.04.06-.1.08-.18.08-.55-.03-1.09-.04-1.61-.04-.47,0-.98.01-1.55.04-.08,0-.14-.03-.18-.08Z"/>
      <path class="cls-3" d="M115.57,225.26c-.04-.06-.06-.12-.06-.2,0-.13.03-.21.08-.23.04-.03.13-.04.25-.04.25,0,.44-.05.56-.14s.2-.2.23-.34c.03-.13.05-.31.06-.53v-5.16c0-.22-.03-.39-.06-.53-.03-.13-.11-.25-.23-.34-.12-.09-.31-.14-.56-.14h-.08c-.09,0-.15-.02-.18-.05s-.06-.11-.06-.23c0-.08.02-.14.06-.2s.09-.08.16-.08c.57.03,1.09.04,1.55.04h4.08c.23,0,.34.1.34.31l.04,1.82c0,.08-.04.14-.12.19-.08.05-.16.07-.23.07-.1,0-.19-.02-.27-.06s-.12-.1-.13-.18c-.07-.42-.15-.75-.23-.97-.08-.22-.2-.39-.36-.49s-.39-.17-.68-.17h-1.74v3.3h2.35c.06,0,.11.04.14.1.03.06.05.12.05.2,0,.07-.02.13-.05.18-.04.05-.08.08-.14.08h-2.35v2.46c.02.18.04.33.06.44s.1.21.23.29.33.12.61.12h1.2c.3,0,.53-.06.69-.15.16-.09.28-.23.37-.42.09-.19.2-.5.33-.94.06-.16.21-.22.44-.18.09.02.16.05.23.1.06.05.09.12.08.2l-.26,1.64c-.03.11-.06.19-.12.22-.05.03-.14.05-.26.05h-4.29c-.47,0-.99.01-1.56.04-.07,0-.12-.03-.16-.08Z"/>
      <path class="cls-3" d="M127.87,225.26c-.04-.06-.06-.12-.06-.2,0-.13.04-.21.08-.23.05-.03.13-.04.24-.04.25,0,.44-.05.56-.14.12-.09.2-.2.23-.34.03-.13.05-.31.06-.53v-1.62c0-.14-.21-.64-.64-1.51-.43-.87-.78-1.55-1.05-2.04-.17-.31-.36-.54-.57-.7-.21-.15-.46-.26-.77-.32-.03,0-.09-.02-.16-.03-.07-.01-.12-.04-.14-.08s-.03-.1-.03-.19c0-.1.03-.17.08-.21.06-.04.15-.05.27-.05.69,0,1.24.09,1.62.28.39.19.74.54,1.04,1.07.15.29.35.7.61,1.24.38.76.63,1.26.75,1.48h.04l1.44-2.85c.08-.17.12-.3.12-.38,0-.1-.05-.17-.16-.21-.11-.04-.28-.05-.53-.05h-.08c-.09,0-.15-.02-.18-.05s-.06-.11-.06-.23c0-.08.02-.14.06-.2s.09-.08.16-.08c.56.03,1.04.04,1.42.04.32,0,.76-.01,1.31-.04.08,0,.14.03.18.08s.06.12.06.2c0,.12-.03.2-.06.23-.04.03-.1.05-.18.05-.36,0-.64.07-.86.2-.22.13-.41.36-.58.68l-1.47,2.77c-.03.05-.08.16-.16.32-.08.16-.13.31-.16.44-.03.13-.04.3-.04.49v1.26c0,.22.03.39.06.53.03.13.11.25.23.34.12.09.31.14.56.14h.08c.09,0,.15.01.18.04s.06.11.06.23c0,.08-.02.15-.06.2-.04.06-.09.08-.16.08-.55-.03-1.07-.04-1.56-.04-.51,0-1.05.01-1.61.04-.08,0-.14-.03-.18-.08Z"/>
      <path class="cls-3" d="M136.23,224.98c-.63-.39-1.11-.92-1.46-1.57-.34-.65-.51-1.35-.51-2.09,0-.91.21-1.7.62-2.38s.94-1.19,1.58-1.55c.64-.36,1.29-.54,1.95-.54.83,0,1.57.2,2.2.59.64.39,1.13.91,1.47,1.56.34.65.51,1.34.51,2.09,0,.91-.21,1.71-.62,2.38-.42.68-.95,1.2-1.6,1.56-.65.36-1.3.54-1.96.54-.82,0-1.55-.2-2.18-.59ZM139.87,224.47c.39-.35.69-.82.88-1.42.19-.59.29-1.25.29-1.97,0-.67-.1-1.28-.3-1.84-.2-.56-.5-1-.9-1.34-.4-.33-.88-.5-1.46-.5-.87,0-1.52.37-1.96,1.1-.44.73-.66,1.66-.66,2.78,0,.68.1,1.3.29,1.86.2.56.49,1.01.88,1.35.39.34.87.51,1.44.51s1.08-.18,1.48-.53Z"/>
      <path class="cls-3" d="M145.82,225.09c-.61-.32-1.09-.8-1.45-1.44s-.53-1.44-.53-2.39c0-.88.19-1.65.58-2.31.38-.67.92-1.18,1.61-1.55s1.47-.55,2.35-.55c.43,0,.86.06,1.29.2.42.13.78.33,1.05.61s.42.62.42,1.03c0,.38-.11.71-.34.99s-.52.42-.9.42c-.18,0-.36-.04-.53-.13-.17-.09-.26-.2-.27-.34,0,0,.06-.06.17-.14.12-.09.23-.2.33-.35.1-.15.15-.32.15-.53,0-.36-.14-.66-.43-.88-.29-.22-.65-.34-1.11-.34-.54,0-1.02.15-1.46.45-.43.3-.78.74-1.03,1.31-.25.58-.38,1.26-.38,2.06s.12,1.44.37,2,.59,1,1.04,1.29.96.45,1.55.45c.28,0,.52-.01.73-.05.21-.03.43-.08.68-.16v-1.33c0-.3-.01-.52-.03-.64s-.09-.21-.21-.27c-.12-.06-.31-.09-.59-.09-.1,0-.17-.01-.21-.04-.04-.03-.07-.11-.08-.23,0-.08.02-.15.07-.2.05-.06.12-.08.2-.08.55.03,1.02.04,1.43.04s.86-.01,1.4-.04c.08,0,.14.03.18.08.04.06.06.12.06.2,0,.12-.03.2-.08.23-.04.03-.11.04-.21.04-.26,0-.45.04-.56.1s-.18.17-.21.29c-.03.13-.04.33-.04.6v1.53c-.51.24-.98.41-1.4.5-.42.09-.96.14-1.6.14-.75,0-1.44-.16-2.05-.47Z"/>
      <path class="cls-3" d="M152.1,225.26c-.04-.06-.06-.12-.06-.2,0-.13.04-.21.08-.23.04-.03.1-.04.16-.04h.12c.26,0,.45-.07.57-.2.12-.13.22-.29.29-.46.07-.17.12-.28.15-.34l2.28-5.38c.05-.13.08-.23.08-.31,0-.16-.06-.27-.18-.34s-.29-.13-.51-.17c-.15-.03-.24-.05-.27-.08-.03-.03-.05-.1-.05-.22,0-.1.03-.17.08-.21.06-.04.14-.05.27-.05.43,0,.78.03,1.03.1.26.07.48.2.67.39.19.2.37.49.53.89l2.18,5.38c.13.33.25.58.38.74.12.17.3.25.55.26h.08c.09,0,.15.01.18.04.03.03.06.11.07.23,0,.08-.02.15-.06.2-.04.06-.1.08-.18.08-.55-.03-1.03-.04-1.43-.04-.52,0-1.06.01-1.61.04-.08,0-.14-.03-.18-.08-.04-.06-.06-.12-.06-.2,0-.12.03-.2.07-.23.03-.03.09-.04.18-.04.29,0,.5-.03.62-.08s.18-.16.18-.31c0-.11-.05-.32-.16-.61l-.44-1.08h-3.21c-.22.54-.34.85-.37.94s-.05.13-.05.14c-.1.33-.16.54-.16.64,0,.15.07.25.2.29.13.05.38.07.74.07h.08c.09,0,.15.01.18.04.04.03.06.11.07.23,0,.08-.02.15-.06.2-.04.06-.1.08-.18.08-.55-.03-1.03-.04-1.42-.04-.28,0-.7.01-1.26.04-.08,0-.14-.03-.18-.08ZM154.74,222.15h2.73l-1.31-3.34h-.04l-1.38,3.34Z"/>
      <path class="cls-3" d="M164.2,225.26c-.04-.06-.06-.12-.06-.2,0-.13.04-.21.08-.23.04-.03.13-.04.25-.04.25,0,.44-.05.56-.14.12-.09.2-.2.23-.34.03-.13.05-.31.06-.53v-5.16c0-.22-.03-.39-.06-.53-.03-.13-.11-.25-.23-.34-.12-.09-.31-.14-.56-.14h-.08c-.09,0-.15-.02-.18-.05-.04-.03-.06-.11-.07-.23,0-.08.02-.14.06-.2s.1-.08.18-.08c.56.03,1.07.04,1.53.04.52,0,1.06-.01,1.62-.04.08,0,.14.03.18.08.04.06.06.12.06.2,0,.13-.03.21-.08.23-.04.03-.13.04-.25.04-.25,0-.44.04-.56.14-.12.09-.2.2-.23.34-.03.13-.05.31-.06.53v2.3h4.08v-2.3c0-.22-.03-.39-.06-.53-.03-.13-.11-.25-.23-.34-.12-.09-.31-.14-.56-.14h-.08c-.09,0-.15-.02-.19-.05s-.06-.11-.07-.23c0-.08.02-.14.07-.2.04-.06.1-.08.17-.08.56.03,1.1.04,1.62.04.48,0,.99-.01,1.55-.04.08,0,.14.03.17.08s.06.12.06.2c0,.13-.04.21-.08.23-.05.03-.13.04-.24.04-.25,0-.44.04-.57.14-.12.09-.2.2-.23.34-.03.13-.05.31-.06.53v5.16c0,.22.03.39.06.53.03.13.11.25.23.34.13.09.31.14.57.14h.08c.08,0,.14.01.18.04s.06.11.07.23c0,.08-.02.15-.06.2-.04.06-.1.08-.17.08-.55-.03-1.08-.04-1.56-.04-.51,0-1.05.01-1.61.04-.07,0-.13-.03-.17-.08-.04-.06-.07-.12-.07-.2,0-.13.04-.21.08-.23.05-.03.13-.04.25-.04.25,0,.44-.05.56-.14.12-.09.2-.2.23-.34.03-.13.05-.31.06-.53v-2.3h-4.08v2.3c0,.22.03.39.06.53.03.13.11.25.23.34s.31.14.56.14h.08c.09,0,.15.01.18.04.03.03.06.11.06.23,0,.08-.02.15-.06.2-.04.06-.1.08-.18.08-.55-.03-1.09-.04-1.61-.04-.47,0-.98.01-1.55.04-.08,0-.14-.03-.18-.08Z"/>
      <path class="cls-3" d="M176.64,225.22c-.47-.23-.83-.54-1.07-.92-.24-.38-.36-.79-.36-1.24v-4.43c0-.22-.03-.39-.06-.53-.03-.13-.11-.25-.23-.34-.12-.09-.31-.14-.56-.14h-.08c-.09,0-.15-.02-.18-.05-.04-.03-.06-.11-.07-.23,0-.08.02-.14.06-.2s.1-.08.18-.08c.55.03,1.07.04,1.53.04.53,0,1.07-.01,1.62-.04.08,0,.14.03.18.08s.06.12.06.2c0,.12-.03.2-.07.23s-.1.05-.19.05c-.28,0-.48.04-.61.13-.13.09-.21.19-.24.33-.03.13-.05.31-.06.55v4.06c0,.6.14,1.1.42,1.51s.83.61,1.64.61,1.36-.18,1.7-.55.5-.83.5-1.38v-3.42c0-.59-.02-1-.07-1.25-.04-.24-.13-.4-.26-.47s-.36-.1-.68-.1h-.08c-.08,0-.14-.02-.18-.05s-.06-.11-.07-.23c0-.08.02-.14.06-.2s.1-.08.18-.08c.56.03,1.05.04,1.46.04s.9-.01,1.46-.04c.08,0,.14.03.18.08s.06.12.06.2c0,.12-.03.2-.07.23s-.1.05-.19.05c-.35,0-.59.03-.72.09-.13.06-.23.21-.27.44-.05.23-.07.63-.07,1.21v3.63c0,.58-.16,1.06-.48,1.45-.32.39-.72.67-1.2.85-.48.18-.96.27-1.45.27-.67,0-1.24-.12-1.71-.35Z"/>
      <path class="cls-3" d="M183.65,225.26c-.04-.06-.06-.12-.06-.2,0-.13.03-.21.08-.23.04-.03.13-.04.25-.04.25,0,.44-.05.56-.14s.2-.2.23-.34c.03-.13.05-.31.06-.53v-5.16c0-.22-.03-.39-.06-.53-.03-.13-.11-.25-.23-.34-.12-.09-.31-.14-.56-.14h-.08c-.09,0-.15-.02-.18-.05-.04-.03-.06-.11-.07-.23,0-.08.02-.14.06-.2s.1-.08.18-.08c.56.03,1.07.04,1.53.04h1.83c.48,0,.86.04,1.16.1s.56.18.79.32c.23.15.4.35.53.6.13.26.2.54.2.84,0,.54-.18.96-.53,1.28-.35.32-.76.53-1.23.64v.04c.45,0,.86.09,1.23.27.37.18.65.42.86.71.2.3.31.62.31.97,0,.59-.18,1.07-.54,1.43-.36.36-.81.62-1.35.77-.54.15-1.1.23-1.68.23h-1.56c-.47-.01-.98,0-1.55.03-.08,0-.14-.03-.18-.08ZM186.59,220.68c.35,0,.65-.03.9-.08s.48-.19.68-.42.3-.58.3-1.05c0-1.03-.51-1.55-1.52-1.55h-.91v3.09h.55ZM188.52,224.33c.39-.31.58-.81.58-1.51-.04-.47-.26-.85-.66-1.16-.39-.3-1.02-.46-1.87-.46h-.53v2.59c0,.29.03.51.08.66.06.14.15.24.27.29.13.05.32.07.58.07.64,0,1.15-.17,1.54-.47Z"/>
    </g>
    <g>
      <path class="cls-3" d="M47.41,204.47c-.08-.12-.13-.27-.13-.43.02-.28.07-.45.17-.5.09-.06.27-.08.53-.08.54,0,.94-.1,1.2-.29.26-.2.42-.44.49-.73.06-.29.11-.67.13-1.13v-11.12c-.02-.47-.06-.84-.13-1.13-.07-.29-.23-.53-.49-.73-.26-.2-.66-.29-1.2-.29h-.17c-.19,0-.32-.03-.39-.1-.08-.06-.12-.23-.14-.49,0-.17.04-.31.13-.43.08-.12.2-.18.35-.18,1.23.06,2.34.08,3.33.08h4.37c1.79,0,3.42.36,4.89,1.08,1.46.72,2.62,1.75,3.47,3.09s1.27,2.93,1.27,4.76-.48,3.51-1.44,4.83c-.96,1.32-2.21,2.3-3.75,2.94-1.54.64-3.19.97-4.94.97h-3.86c-.99,0-2.1.03-3.33.08-.15,0-.27-.06-.35-.18ZM60.18,201.5c1.02-1.35,1.53-3.24,1.53-5.67,0-1.53-.28-2.9-.83-4.1-.55-1.2-1.35-2.14-2.39-2.81s-2.29-1.01-3.72-1.01l-2.18.03v13.69c0,.73.22,1.23.66,1.5.44.27,1.15.41,2.14.41,2.18,0,3.78-.68,4.8-2.03Z"/>
      <path class="cls-3" d="M70.16,203.75c-.75-.77-1.12-1.77-1.12-3.02v-5.18c0-.49-.01-.84-.04-1.06-.03-.22-.15-.42-.35-.59-.21-.17-.55-.25-1.04-.25-.22,0-.39-.03-.5-.1s-.17-.22-.17-.46c0-.11.04-.22.11-.32s.19-.16.34-.18c1.18-.17,2.18-.41,3.02-.73.26-.09.48-.15.64-.17h.08c.3,0,.45.18.45.53v8.48c0,.86.27,1.52.81,1.97.54.46,1.17.69,1.88.69.88,0,1.62-.21,2.24-.64.62-.43,1.03-.86,1.23-1.29v-5.88c0-.49-.01-.84-.04-1.06-.03-.22-.15-.42-.35-.59-.21-.17-.55-.25-1.04-.25-.22,0-.39-.03-.5-.1s-.17-.22-.17-.46c0-.11.04-.22.11-.32s.19-.16.34-.18c1.18-.17,2.18-.41,3.02-.73.26-.09.48-.15.64-.17h.08c.3,0,.45.18.45.53v9.69c0,1.1.74,1.65,2.21,1.65.32,0,.48.18.48.53,0,.26-.16.42-.48.48l-4.51.31c-.13,0-.21-.04-.22-.13-.02-.08-.03-.23-.03-.43v-1.57h-.06c-.54.5-.98.89-1.32,1.16-.34.27-.77.5-1.3.7-.53.2-1.16.29-1.89.29-1.27,0-2.28-.38-3.02-1.15Z"/>
      <path class="cls-3" d="M84.2,204.48c-.08-.11-.13-.24-.13-.39.02-.24.07-.39.17-.43.09-.05.26-.07.5-.07.48,0,.83-.08,1.04-.25s.32-.36.35-.59c.03-.22.04-.58.04-1.06v-6.41c0-.49-.01-.84-.04-1.06-.03-.22-.14-.42-.35-.59s-.55-.25-1.04-.25c-.22,0-.39-.03-.5-.1-.11-.07-.17-.22-.17-.46,0-.11.04-.22.11-.32.07-.1.19-.16.34-.18,1.21-.19,2.21-.43,3-.73.32-.09.53-.15.64-.17h.08c.3,0,.45.18.45.53v1.74h.08c.65-.65,1.32-1.17,1.99-1.55.67-.38,1.28-.57,1.82-.57.62,0,1.11.23,1.47.69.36.46.55.98.55,1.58,0,.52-.16.99-.48,1.4-.32.41-.76.62-1.32.62-.26,0-.49-.06-.69-.17-.2-.11-.3-.21-.32-.28.02-.04.11-.15.28-.35s.25-.42.25-.69c0-.34-.09-.61-.27-.81-.18-.21-.42-.31-.71-.31-.32,0-.72.15-1.2.46-.49.31-.96.7-1.43,1.16v6.83c0,.49.02.84.06,1.06.04.22.16.42.36.59.21.17.55.25,1.04.25h.17c.15,0,.26.03.34.08.07.06.12.2.14.42,0,.15-.04.28-.11.39-.07.11-.19.17-.34.17-1.08-.06-2.06-.08-2.94-.08s-1.81.03-2.91.08c-.13,0-.24-.06-.32-.17Z"/>
      <path class="cls-3" d="M95.81,207.31c0-.63.2-1.19.6-1.65s.92-.7,1.55-.7c.26,0,.5.05.73.15.22.1.41.22.55.36.14.14.21.25.21.32,0,.02-.08.11-.24.27-.16.16-.3.35-.42.59s-.18.51-.18.83c0,1.44,1.23,2.16,3.7,2.16,1.42,0,2.51-.25,3.28-.74.77-.5,1.15-1.23,1.15-2.2,0-.6-.22-1.05-.67-1.34-.45-.3-1.01-.49-1.68-.57-.67-.08-1.55-.14-2.63-.15-1.33-.04-2.27-.1-2.83-.2-.73-.13-1.29-.36-1.69-.7s-.6-.86-.6-1.57.26-1.34.77-1.83c.51-.49,1.25-.74,2.2-.74-1.1-.43-1.88-.97-2.32-1.61-.45-.64-.67-1.37-.67-2.17s.23-1.53.69-2.18c.46-.65,1.1-1.17,1.92-1.54.82-.37,1.75-.56,2.8-.56,1.34,0,2.38.19,3.11.56l3.84-.73h.06c.32,0,.48.22.48.67,0,.26-.04.5-.13.73-.08.22-.18.34-.29.34l-2.77-.11v.06c.32.32.59.74.81,1.26.22.52.34,1.02.34,1.48,0,.86-.25,1.62-.74,2.28-.49.66-1.14,1.17-1.95,1.53-.8.36-1.64.53-2.52.53h-1.23c-.97,0-1.68.09-2.11.28s-.66.5-.66.92c0,.35.12.62.36.78s.66.27,1.26.31l3.84.14c1.96.07,3.37.39,4.24.94.87.55,1.3,1.39,1.3,2.51,0,1.46-.68,2.6-2.04,3.43-1.36.83-3.18,1.25-5.46,1.25-3.94,0-5.91-1.12-5.91-3.36ZM104.11,198.36c.53-.62.8-1.49.8-2.59,0-1.03-.28-1.85-.83-2.46s-1.26-.92-2.11-.92-1.53.3-2.07.9c-.54.6-.81,1.41-.81,2.44,0,1.12.27,2,.81,2.63.54.63,1.24.95,2.1.95s1.58-.31,2.11-.94Z"/>
      <path class="cls-3" d="M113.83,204.01c-.98-.6-1.72-1.41-2.23-2.44-.5-1.03-.76-2.17-.76-3.42,0-1.1.26-2.16.77-3.18.51-1.02,1.25-1.84,2.2-2.48.95-.63,2.04-.95,3.28-.95,1.66,0,2.94.42,3.84,1.27.9.85,1.41,1.99,1.54,3.43,0,.62-.17,1.04-.5,1.26-.34.22-.82.34-1.46.34h-6.8c0,1.74.36,3.11,1.08,4.13.72,1.02,1.83,1.53,3.35,1.53.8,0,1.48-.17,2.04-.52.56-.34,1.09-.93,1.6-1.75.09-.09.19-.14.28-.14.13,0,.24.04.34.11.19.11.28.28.28.5,0,.11-.02.2-.06.25-.58.93-1.31,1.66-2.2,2.17-.89.51-1.89.77-3.01.77-1.4,0-2.59-.3-3.57-.9ZM118.27,196.78c.95,0,1.46-.39,1.51-1.18,0-.86-.23-1.59-.7-2.18-.47-.6-1.13-.9-1.99-.9-.95,0-1.74.38-2.35,1.13-.62.76-.96,1.8-1.04,3.12h4.56Z"/>
      <path class="cls-3" d="M126.22,204.12c-.93-.52-1.4-1.26-1.4-2.21,0-.54.16-.98.49-1.32.33-.34.75-.5,1.27-.5.3,0,.56.08.8.25.23.17.35.3.35.39,0,.02-.11.14-.32.36-.21.22-.32.54-.32.95,0,.56.26,1,.77,1.33.51.33,1.26.49,2.23.49.88,0,1.56-.19,2.06-.57.49-.38.74-.92.74-1.61,0-.47-.14-.85-.42-1.15-.28-.3-.63-.53-1.05-.7-.42-.17-1-.36-1.75-.59-.92-.26-1.66-.52-2.24-.78-.58-.26-1.07-.65-1.48-1.18-.41-.52-.62-1.2-.62-2.04,0-.78.24-1.46.73-2.02.49-.56,1.12-.98,1.89-1.26.77-.28,1.59-.42,2.45-.42,1.1,0,2.06.23,2.87.7.81.47,1.22,1.12,1.22,1.96,0,.5-.15.93-.46,1.29-.31.36-.71.53-1.22.53-.3,0-.56-.08-.8-.25-.23-.17-.35-.3-.35-.39,0-.02.07-.09.22-.22.15-.13.28-.28.41-.46.12-.18.18-.39.18-.63-.04-.5-.29-.9-.76-1.18-.47-.28-1.02-.42-1.65-.42-.71,0-1.33.16-1.86.49-.53.33-.8.78-.8,1.36,0,.52.11.94.34,1.25s.56.56,1.01.74c.45.19,1.16.44,2.13.76.99.32,1.76.61,2.32.88s1,.63,1.33,1.09c.33.46.49,1.06.49,1.81s-.22,1.46-.67,2.09c-.45.62-1.06,1.11-1.85,1.46-.78.34-1.66.52-2.63.52-1.49,0-2.71-.26-3.64-.78Z"/>
      <path class="cls-3" d="M136.91,204.48c-.07-.11-.11-.24-.11-.39.02-.24.07-.39.15-.43.08-.05.25-.07.49-.07.48,0,.83-.08,1.04-.25.21-.17.33-.36.36-.59.04-.22.06-.58.06-1.06v-13.66c0-.49-.01-.84-.04-1.06-.03-.22-.15-.42-.35-.59-.21-.17-.55-.25-1.04-.25-.22,0-.39-.03-.5-.1s-.17-.22-.17-.46c0-.11.04-.22.11-.32s.19-.16.34-.18c.93-.13,1.64-.28,2.11-.43.48-.16.75-.25.83-.27.35-.13.6-.2.73-.2.35,0,.53.18.53.53v9.02h.06c.54-.5.98-.89,1.32-1.16.34-.27.77-.5,1.3-.7.53-.2,1.16-.29,1.89-.29,1.27,0,2.28.38,3.02,1.15.75.77,1.12,1.77,1.12,3.02v5.96c0,.49.01.84.04,1.06.03.22.14.42.35.59.21.17.55.25,1.04.25h.17c.17,0,.29.03.35.08.06.06.11.2.13.42,0,.15-.04.28-.11.39s-.18.17-.31.17c-1.1-.06-2.08-.08-2.94-.08s-1.85.03-2.91.08c-.15,0-.26-.06-.34-.17s-.11-.24-.11-.39c.02-.24.07-.39.15-.43.08-.05.25-.07.49-.07.48,0,.83-.08,1.04-.25s.32-.36.35-.57c.03-.21.04-.57.04-1.08v-5.94c0-.86-.27-1.52-.8-1.97-.53-.46-1.15-.69-1.86-.69-.86,0-1.6.21-2.23.64-.63.43-1.04.86-1.25,1.29v6.66c0,.49.01.84.04,1.06.03.22.14.42.35.59.21.17.55.25,1.04.25h.17c.17,0,.28.03.35.08.07.06.11.2.13.42,0,.15-.04.28-.11.39-.08.11-.18.17-.31.17-1.08-.06-2.06-.08-2.94-.08s-1.81.03-2.91.08c-.15,0-.26-.06-.34-.17Z"/>
      <path class="cls-3" d="M160.22,204.47c-.08-.12-.13-.27-.13-.43.02-.28.07-.45.17-.5.09-.06.27-.08.53-.08.54,0,.94-.1,1.2-.29.26-.2.42-.44.49-.73.07-.29.11-.67.13-1.13v-11.12c-.02-.47-.06-.84-.13-1.13-.07-.29-.23-.53-.49-.73-.26-.2-.66-.29-1.2-.29h-.17c-.19,0-.32-.03-.39-.1-.07-.06-.12-.23-.14-.49,0-.17.04-.31.13-.43.08-.12.21-.18.38-.18,1.21.06,2.31.08,3.3.08,1.12,0,2.29-.03,3.5-.08.17,0,.29.06.38.18.08.12.13.27.13.43-.02.28-.07.45-.17.5-.09.06-.27.08-.53.08-.54,0-.94.1-1.2.29-.26.2-.42.44-.49.73-.07.29-.11.67-.13,1.13v5.07c.3-.06.63-.21,1.01-.48s.83-.62,1.37-1.09c1.04-.97,2.36-2.4,3.95-4.28.34-.37.5-.67.5-.9,0-.28-.25-.43-.76-.45-.13-.02-.22-.07-.27-.15s-.09-.23-.13-.43c0-.17.05-.32.14-.45.09-.13.21-.2.36-.2.65.06,1.68.08,3.08.08.45,0,1.1-.02,1.96-.06l.59-.03c.17,0,.3.06.39.18.09.12.14.28.14.46-.02.26-.07.42-.17.49s-.22.1-.39.1c-.75-.04-1.45.08-2.11.36-.66.28-1.36.78-2.09,1.51l-4.54,4.73c.65.8,1.33,1.57,2.02,2.3.69.73,1.52,1.58,2.49,2.55.49.49,1.06,1.08,1.74,1.79.21.21.34.36.42.45.6.6,1.07,1.02,1.41,1.26.34.24.77.39,1.27.45.04,0,.12,0,.25.01.13,0,.24.06.32.15.08.09.13.23.13.42,0,.17-.04.31-.13.43s-.21.18-.38.18c-.22-.02-.49-.03-.81-.03-.67-.04-1.2-.06-1.57-.06h-1.79c-2.46-2.74-4.67-5.24-6.61-7.48-.6-.69-1.2-1.06-1.82-1.12v5.32c.02.47.06.84.13,1.13.07.29.23.53.49.73.26.2.66.29,1.2.29h.17c.19,0,.32.03.39.1.07.07.12.23.14.49,0,.17-.04.31-.13.43s-.21.18-.38.18c-1.19-.06-2.35-.08-3.47-.08-1.01,0-2.12.03-3.33.08-.17,0-.29-.06-.38-.18Z"/>
      <path class="cls-3" d="M182.78,203.99c-.99-.61-1.76-1.41-2.31-2.41-.55-1-.83-2.06-.83-3.18,0-1.4.33-2.62.98-3.65.65-1.04,1.48-1.83,2.49-2.38,1.01-.55,2.03-.83,3.05-.83,1.27,0,2.4.3,3.39.91.99.61,1.76,1.41,2.31,2.41.55,1,.83,2.06.83,3.18,0,1.4-.33,2.62-.99,3.65-.66,1.04-1.5,1.83-2.51,2.38-1.01.55-2.02.83-3.02.83-1.27,0-2.4-.3-3.39-.91ZM188.95,202.24c.59-1.08.88-2.48.88-4.2,0-1.6-.3-2.92-.91-3.93s-1.53-1.53-2.76-1.53-2.22.53-2.8,1.6c-.58,1.06-.87,2.45-.87,4.17,0,1.61.3,2.93.9,3.96.6,1.04,1.52,1.55,2.77,1.55s2.2-.54,2.79-1.62Z"/>
      <path class="cls-3" d="M196.3,204.12c-.93-.52-1.4-1.26-1.4-2.21,0-.54.16-.98.49-1.32.33-.34.75-.5,1.27-.5.3,0,.56.08.8.25.23.17.35.3.35.39,0,.02-.11.14-.32.36-.21.22-.32.54-.32.95,0,.56.26,1,.77,1.33.51.33,1.26.49,2.23.49.88,0,1.56-.19,2.06-.57.5-.38.74-.92.74-1.61,0-.47-.14-.85-.42-1.15-.28-.3-.63-.53-1.05-.7s-1-.36-1.75-.59c-.92-.26-1.66-.52-2.24-.78-.58-.26-1.07-.65-1.48-1.18-.41-.52-.62-1.2-.62-2.04,0-.78.24-1.46.73-2.02.49-.56,1.12-.98,1.89-1.26.77-.28,1.59-.42,2.45-.42,1.1,0,2.06.23,2.87.7.81.47,1.22,1.12,1.22,1.96,0,.5-.15.93-.46,1.29-.31.36-.71.53-1.22.53-.3,0-.56-.08-.8-.25s-.35-.3-.35-.39c0-.02.07-.09.22-.22.15-.13.28-.28.41-.46.12-.18.18-.39.18-.63-.04-.5-.29-.9-.76-1.18-.47-.28-1.02-.42-1.65-.42-.71,0-1.33.16-1.86.49-.53.33-.8.78-.8,1.36,0,.52.11.94.34,1.25.22.31.56.56,1.01.74.45.19,1.16.44,2.13.76.99.32,1.76.61,2.32.88.56.27,1,.63,1.33,1.09.33.46.49,1.06.49,1.81s-.22,1.46-.67,2.09c-.45.62-1.06,1.11-1.85,1.46-.78.34-1.66.52-2.63.52-1.49,0-2.71-.26-3.64-.78Z"/>
      <path class="cls-3" d="M207,204.48c-.07-.11-.11-.24-.11-.39.02-.24.07-.39.15-.43.08-.05.25-.07.49-.07.49,0,.83-.08,1.04-.25.21-.17.33-.36.36-.59.04-.22.06-.58.06-1.06v-13.66c0-.49-.01-.84-.04-1.06-.03-.22-.14-.42-.35-.59-.21-.17-.55-.25-1.04-.25-.22,0-.39-.03-.5-.1-.11-.07-.17-.22-.17-.46,0-.11.04-.22.11-.32s.19-.16.34-.18c.93-.13,1.64-.28,2.11-.43.48-.16.75-.25.83-.27.35-.13.6-.2.73-.2.35,0,.53.18.53.53v9.02h.06c.54-.5.98-.89,1.32-1.16.34-.27.77-.5,1.3-.7.53-.2,1.16-.29,1.89-.29,1.27,0,2.28.38,3.02,1.15.75.77,1.12,1.77,1.12,3.02v5.96c0,.49.01.84.04,1.06.03.22.14.42.35.59.21.17.55.25,1.04.25h.17c.17,0,.29.03.35.08.06.06.11.2.13.42,0,.15-.04.28-.11.39-.08.11-.18.17-.31.17-1.1-.06-2.08-.08-2.94-.08s-1.85.03-2.91.08c-.15,0-.26-.06-.34-.17s-.11-.24-.11-.39c.02-.24.07-.39.15-.43.08-.05.25-.07.49-.07.49,0,.83-.08,1.04-.25.21-.17.32-.36.35-.57s.04-.57.04-1.08v-5.94c0-.86-.27-1.52-.8-1.97-.53-.46-1.15-.69-1.86-.69-.86,0-1.6.21-2.23.64-.63.43-1.04.86-1.25,1.29v6.66c0,.49.01.84.04,1.06.03.22.14.42.35.59.21.17.55.25,1.04.25h.17c.17,0,.29.03.35.08.06.06.11.2.13.42,0,.15-.04.28-.11.39-.08.11-.18.17-.31.17-1.08-.06-2.06-.08-2.94-.08s-1.81.03-2.91.08c-.15,0-.26-.06-.34-.17Z"/>
      <path class="cls-3" d="M226.43,204.03c-.65-.67-.98-1.63-.98-2.88v-8.23l-1.62.06c-.11,0-.21-.05-.28-.15-.07-.1-.11-.22-.11-.35,0-.17.03-.31.1-.43.07-.12.16-.19.29-.21.65-.13,1.16-.34,1.53-.63.36-.29.63-.61.8-.95.17-.34.37-.87.62-1.58.09-.24.3-.36.62-.36.13,0,.26.03.39.1.13.07.2.16.2.29l-.2,3.19,3.28-.2h.06c.24,0,.36.18.36.53,0,.21-.03.4-.1.57-.07.18-.14.27-.24.27l-3.14-.08v8.51c0,.62.13,1.13.38,1.54.25.41.67.62,1.25.62s1.09-.1,1.54-.31c.24-.09.39-.14.45-.14.13,0,.23.05.31.15.08.1.15.24.22.41.02.04.03.08.03.14,0,.07-.06.16-.17.25-.54.35-1.05.59-1.53.71-.48.12-1.04.18-1.69.18-.92,0-1.7-.34-2.35-1.01Z"/>
      <path class="cls-3" d="M234.39,204.48c-.08-.11-.13-.24-.13-.39.02-.24.07-.39.17-.43.09-.05.26-.07.5-.07.49,0,.83-.08,1.04-.25s.32-.36.35-.59c.03-.22.04-.58.04-1.06v-6.41c0-.49-.01-.84-.04-1.06-.03-.22-.15-.42-.35-.59s-.55-.25-1.04-.25c-.22,0-.39-.03-.5-.1-.11-.07-.17-.22-.17-.46,0-.11.04-.22.11-.32.07-.1.19-.16.34-.18,1.18-.17,2.18-.41,3.02-.73.26-.09.48-.15.64-.17h.08c.3,0,.45.18.45.53v9.74c0,.49.02.84.06,1.06.04.22.16.42.36.59.21.17.55.25,1.04.25h.17c.15,0,.26.03.34.08.07.06.12.2.14.42,0,.15-.04.28-.11.39-.07.11-.19.17-.34.17-1.08-.06-2.06-.08-2.94-.08s-1.81.03-2.91.08c-.13,0-.24-.06-.32-.17ZM236.17,187.81c-.35-.33-.53-.73-.53-1.22,0-.43.21-.81.64-1.15.43-.34.91-.5,1.46-.5.47,0,.85.16,1.15.49.3.33.45.74.45,1.25,0,.45-.18.83-.53,1.15s-.79.48-1.32.48-.96-.16-1.32-.49Z"/>
    </g>
  </g>
</svg>